<svg width="20" height="20" viewBox="0 0 20 20" fill="none" xmlns="http://www.w3.org/2000/svg">
<g clip-path="url(#clip0_5496_51156)">
<g clip-path="url(#clip1_5496_51156)">
<path d="M13.5 2.5H6.5C5.09987 2.5 4.3998 2.5 3.86502 2.77248C3.39462 3.01217 3.01217 3.39462 2.77248 3.86502C2.5 4.3998 2.5 5.09987 2.5 6.5V13.5C2.5 14.9001 2.5 15.6002 2.77248 16.135C3.01217 16.6054 3.39462 16.9878 3.86502 17.2275C4.3998 17.5 5.09987 17.5 6.5 17.5H13.5C14.9001 17.5 15.6002 17.5 16.135 17.2275C16.6054 16.9878 16.9878 16.6054 17.2275 16.135C17.5 15.6002 17.5 14.9001 17.5 13.5V6.5C17.5 5.09987 17.5 4.3998 17.2275 3.86502C16.9878 3.39462 16.6054 3.01217 16.135 2.77248C15.6002 2.5 14.9001 2.5 13.5 2.5Z" stroke="#344054" stroke-width="1.66667" stroke-linecap="round" stroke-linejoin="round"/>
<path d="M9.66187 12.3192L7.78125 5H8.9946C9.73899 5 10.4203 5.41815 10.7573 6.08188L15.0035 14.4444H12.4023C11.1108 14.4444 9.98327 13.57 9.66187 12.3192Z" fill="#344054"/>
<path d="M7.61412 12.9458L8.33594 9.77078L8.1202 8.77601L7.90445 7.78125L6.49857 11.1146L5.0026 14.4479H5.73222C6.63325 14.4479 7.41438 13.8244 7.61412 12.9458Z" fill="#344054"/>
<path d="M1 1.46875L18 18.4688" stroke="#344054" stroke-width="1.5"/>
<path d="M2 0.46875L20 18.4687" stroke="white" stroke-width="1.5"/>
</g>
</g>
<defs>
<clipPath id="clip0_5496_51156">
<rect width="20" height="20" fill="white"/>
</clipPath>
<clipPath id="clip1_5496_51156">
<rect width="20" height="20" fill="white"/>
</clipPath>
</defs>
</svg>
