<svg width="32" height="32" viewBox="0 0 32 32" fill="none" xmlns="http://www.w3.org/2000/svg">
<path d="M5 9.53846H27M11.4167 9.53846V8.61538C11.4167 7.39131 11.8996 6.21737 12.7591 5.35181C13.6186 4.48626 14.7844 4 16 4C17.2156 4 18.3814 4.48626 19.2409 5.35181C20.1004 6.21737 20.5833 7.39131 20.5833 8.61538V9.53846M13.25 13.2308V23.3846M18.75 13.2308V23.3846M7.75 9.53846H24.25V26.1538C24.25 26.6435 24.0568 27.1131 23.713 27.4593C23.3692 27.8055 22.9029 28 22.4167 28H9.58333C9.0971 28 8.63079 27.8055 8.28697 27.4593C7.94315 27.1131 7.75 26.6435 7.75 26.1538V9.53846Z" stroke="#5168F6" stroke-width="2.5" stroke-linecap="round" stroke-linejoin="round"/>
</svg>
