<svg width="117" height="83" viewBox="0 0 117 83" fill="none" xmlns="http://www.w3.org/2000/svg">
<path d="M23.84 73.88C23.84 78.36 21.46 81 16.76 81H11.1V66.76H16.76C21.46 66.76 23.84 69.42 23.84 73.88ZM21.12 73.88C21.12 70.58 19.72 68.9 16.9 68.9H13.82V78.86H16.9C19.72 78.86 21.12 77.18 21.12 73.88ZM28.095 81H25.515V70.68H27.975V72.98C28.515 71.16 29.415 70.54 30.855 70.54C31.135 70.54 31.555 70.62 31.795 70.68V72.94L30.735 72.92C29.155 72.92 28.095 74.1 28.095 76.2V81ZM43.0322 81H33.4922V66.76H36.2122V78.78H43.0322V81ZM47.9264 81.2C45.5064 81.2 44.2064 79.98 44.2064 78.08C44.2064 76.5 45.1464 75.24 47.7464 75.04L49.8464 74.86C50.8864 74.76 51.1864 74.48 51.1864 73.94C51.1864 72.92 50.5664 72.32 49.2864 72.32C48.0864 72.32 47.4264 72.84 47.3264 73.94H44.7664C44.7664 71.84 46.0864 70.48 49.2664 70.48C52.4464 70.48 53.7664 71.84 53.7664 73.94V78.36C53.7664 79.76 53.8864 80.66 54.0864 81H51.7464C51.4464 80.62 51.3064 80.2 51.3064 79.4C50.7264 80.58 49.6864 81.2 47.9264 81.2ZM48.6864 79.44C50.2864 79.44 51.1864 78.22 51.1864 76.72V76C51.0064 76.22 50.5264 76.34 49.8264 76.4L48.6064 76.5C47.3064 76.62 46.7864 77.16 46.7864 77.9C46.7864 78.82 47.3664 79.44 48.6864 79.44ZM70.0816 81H67.6016V74.6C67.6016 73.22 67.1416 72.58 66.1416 72.58C65.0616 72.58 64.2016 73.48 64.2016 75.16V81H61.7016V74.6C61.7016 73.22 61.2416 72.58 60.2616 72.58C59.1816 72.58 58.3216 73.48 58.3216 75.16V81H55.8416V70.68H58.3016V72.36C58.8016 71.26 59.6816 70.48 61.1016 70.48C62.6016 70.48 63.5416 71.12 63.9616 72.42C64.4816 71.22 65.5016 70.48 66.9216 70.48C69.0416 70.48 70.0816 71.68 70.0816 74.18V81ZM77.9148 81.2C76.1748 81.2 75.1748 80.44 74.6148 79.24V81H72.1548V66.76H74.7348V72.24C75.3148 71.12 76.3548 70.48 77.9148 70.48C80.6948 70.48 82.4548 72.46 82.4548 75.84C82.4548 79.22 80.6948 81.2 77.9148 81.2ZM77.2948 79.24C78.8348 79.24 79.8748 78.2 79.8748 75.84C79.8748 73.48 78.8348 72.44 77.2948 72.44C75.7748 72.44 74.7348 73.48 74.7348 75.84C74.7348 78.2 75.7748 79.24 77.2948 79.24ZM88.2722 81.2C85.4922 81.2 83.7322 79.22 83.7322 75.84C83.7322 72.46 85.4922 70.48 88.2722 70.48C89.8322 70.48 90.8722 71.12 91.4522 72.24V66.76H94.0322V81H91.5722V79.24C91.0122 80.44 89.9922 81.2 88.2722 81.2ZM88.8722 79.24C90.4122 79.24 91.4522 78.2 91.4522 75.84C91.4522 73.48 90.4122 72.44 88.8722 72.44C87.3522 72.44 86.3122 73.48 86.3122 75.84C86.3122 78.2 87.3522 79.24 88.8722 79.24ZM99.4295 81.2C97.0095 81.2 95.7095 79.98 95.7095 78.08C95.7095 76.5 96.6495 75.24 99.2495 75.04L101.35 74.86C102.39 74.76 102.69 74.48 102.69 73.94C102.69 72.92 102.07 72.32 100.79 72.32C99.5895 72.32 98.9295 72.84 98.8295 73.94H96.2695C96.2695 71.84 97.5895 70.48 100.77 70.48C103.95 70.48 105.27 71.84 105.27 73.94V78.36C105.27 79.76 105.39 80.66 105.59 81H103.25C102.95 80.62 102.81 80.2 102.81 79.4C102.23 80.58 101.19 81.2 99.4295 81.2ZM100.19 79.44C101.79 79.44 102.69 78.22 102.69 76.72V76C102.51 76.22 102.03 76.34 101.33 76.4L100.11 76.5C98.8095 76.62 98.2895 77.16 98.2895 77.9C98.2895 78.82 98.8695 79.44 100.19 79.44Z" fill="black"/>
<path d="M57.8451 39.633L47.7656 0C55.7173 0 62.9893 4.48402 66.5601 11.5889L86.3667 50.9993H72.4639C65.5651 50.9993 59.5455 46.319 57.8451 39.633Z" fill="url(#paint0_linear_4783_52329)"/>
<path d="M48.001 41.9885L52.1172 25.8737L50.8152 20.5306L49.5133 15.1875L41.029 33.0915L32.0012 50.9955H36.4042C41.8737 50.9955 46.6474 47.2879 48.001 41.9885Z" fill="url(#paint1_linear_4783_52329)"/>
<defs>
<linearGradient id="paint0_linear_4783_52329" x1="67.0661" y1="0" x2="67.0661" y2="49.979" gradientUnits="userSpaceOnUse">
<stop stop-color="#6A7EF9"/>
<stop offset="1" stop-color="#2F4CFF"/>
</linearGradient>
<linearGradient id="paint1_linear_4783_52329" x1="42.0592" y1="15.1875" x2="42.0592" y2="50.2791" gradientUnits="userSpaceOnUse">
<stop stop-color="#6A7EF9"/>
<stop offset="1" stop-color="#2F4CFF"/>
</linearGradient>
</defs>
</svg>
