<svg width="736" height="492" viewBox="0 0 736 492" fill="none" xmlns="http://www.w3.org/2000/svg">
<g clip-path="url(#clip0_698_4596)">
<rect width="736" height="492" fill="white"/>
<path d="M147.24 65H145.995V55.535L142.125 65H141L137.13 55.535V65H135.885V54.32H137.895L141.57 63.125L145.23 54.32H147.24V65ZM151.965 65.15C150.21 65.15 149.22 64.25 149.22 62.81C149.22 61.67 149.94 60.785 151.83 60.62L153.255 60.5C154.305 60.41 154.605 60.185 154.605 59.615C154.605 58.625 154.05 58.01 152.76 58.01C151.56 58.01 150.93 58.52 150.84 59.615H149.64C149.64 58.085 150.585 57.11 152.745 57.11C154.905 57.11 155.85 58.085 155.85 59.615V63.02C155.85 64.07 155.94 64.745 156.09 65H154.995C154.755 64.67 154.665 64.355 154.665 63.53C154.245 64.61 153.33 65.15 151.965 65.15ZM152.295 64.28C153.825 64.28 154.605 63.065 154.605 61.625V60.86C154.425 61.1 153.945 61.25 153.255 61.31L152.19 61.4C150.96 61.49 150.465 62.015 150.465 62.735C150.465 63.62 151.005 64.28 152.295 64.28ZM164.945 65H163.505L160.76 61.235L159.29 62.645V65H158.045V54.32H159.29V61.25L163.355 57.26H164.795L161.6 60.38L164.945 65ZM169.345 65.15C166.96 65.15 165.64 63.62 165.64 61.13C165.64 58.745 166.87 57.11 169.255 57.11C171.655 57.11 172.885 58.79 172.885 60.95C172.885 61.07 172.885 61.205 172.855 61.325H166.885C166.915 63.425 167.905 64.28 169.345 64.28C170.59 64.28 171.34 63.62 171.61 62.645H172.72C172.36 64.19 171.295 65.15 169.345 65.15ZM169.255 57.98C167.92 57.98 167.05 58.805 166.885 60.485H171.64C171.475 58.805 170.59 57.98 169.255 57.98ZM189.202 65H188.002V60.05C188.002 58.76 187.612 58.115 186.577 58.115C185.527 58.115 184.732 59.09 184.732 60.65V65H183.547V60.05C183.547 58.76 183.142 58.115 182.137 58.115C181.087 58.115 180.322 59.09 180.322 60.65V65H179.122V57.26H180.307V58.685C180.667 57.725 181.432 57.11 182.497 57.11C183.682 57.11 184.372 57.665 184.627 58.775C185.017 57.68 185.857 57.11 186.922 57.11C188.467 57.11 189.202 58.01 189.202 59.885V65ZM194.802 65.15C192.417 65.15 191.097 63.62 191.097 61.13C191.097 58.745 192.327 57.11 194.712 57.11C197.112 57.11 198.342 58.79 198.342 60.95C198.342 61.07 198.342 61.205 198.312 61.325H192.342C192.372 63.425 193.362 64.28 194.802 64.28C196.047 64.28 196.797 63.62 197.067 62.645H198.177C197.817 64.19 196.752 65.15 194.802 65.15ZM194.712 57.98C193.377 57.98 192.507 58.805 192.342 60.485H197.097C196.932 58.805 196.047 57.98 194.712 57.98ZM207.024 65.15C205.269 65.15 204.279 64.25 204.279 62.81C204.279 61.67 204.999 60.785 206.889 60.62L208.314 60.5C209.364 60.41 209.664 60.185 209.664 59.615C209.664 58.625 209.109 58.01 207.819 58.01C206.619 58.01 205.989 58.52 205.899 59.615H204.699C204.699 58.085 205.644 57.11 207.804 57.11C209.964 57.11 210.909 58.085 210.909 59.615V63.02C210.909 64.07 210.999 64.745 211.149 65H210.054C209.814 64.67 209.724 64.355 209.724 63.53C209.304 64.61 208.389 65.15 207.024 65.15ZM207.354 64.28C208.884 64.28 209.664 63.065 209.664 61.625V60.86C209.484 61.1 209.004 61.25 208.314 61.31L207.249 61.4C206.019 61.49 205.524 62.015 205.524 62.735C205.524 63.62 206.064 64.28 207.354 64.28ZM307.349 65.15C304.994 65.15 304.154 64.085 304.154 62.645H305.339C305.414 63.605 305.804 64.295 307.364 64.295C308.909 64.295 309.314 63.605 309.314 62.855C309.314 62.15 308.834 61.805 308.039 61.685L306.524 61.46C305.069 61.25 304.364 60.71 304.364 59.465C304.364 58.175 305.099 57.11 307.349 57.11C309.614 57.11 310.349 58.175 310.349 59.495H309.164C309.089 58.7 308.849 57.965 307.349 57.965C306.074 57.965 305.609 58.49 305.609 59.375C305.609 60.125 306.029 60.365 306.689 60.455L308.219 60.68C309.659 60.89 310.559 61.445 310.559 62.795C310.559 64.085 309.719 65.15 307.349 65.15ZM315.767 65.15C313.472 65.15 312.152 63.62 312.152 61.13C312.152 58.655 313.472 57.11 315.767 57.11C318.137 57.11 319.142 58.655 319.142 60.02H318.017C317.867 59 317.237 58.07 315.767 58.07C314.297 58.07 313.397 59.105 313.397 61.13C313.397 63.155 314.297 64.19 315.767 64.19C317.057 64.19 317.837 63.485 318.017 62.18H319.142C319.142 63.695 318.047 65.15 315.767 65.15ZM322.134 65H320.889V57.26H322.074V59.09C322.494 57.74 323.199 57.185 324.354 57.185C324.564 57.185 324.834 57.215 325.059 57.26V58.34L324.309 58.31C322.989 58.31 322.134 59.36 322.134 61.265V65ZM327.992 65H326.747V57.26H327.992V65ZM327.362 55.715C326.867 55.715 326.597 55.415 326.597 55.025C326.597 54.635 326.867 54.335 327.362 54.335C327.857 54.335 328.142 54.635 328.142 55.025C328.142 55.415 327.857 55.715 327.362 55.715ZM334.104 65.15C332.784 65.15 331.869 64.61 331.434 63.53V67.94H330.189V57.26H331.374V58.805C331.809 57.71 332.709 57.11 334.104 57.11C336.189 57.11 337.464 58.595 337.464 61.13C337.464 63.665 336.189 65.15 334.104 65.15ZM333.819 64.19C335.244 64.19 336.219 63.245 336.219 61.13C336.219 59.015 335.244 58.07 333.819 58.07C332.409 58.07 331.434 59.015 331.434 61.13C331.434 63.245 332.409 64.19 333.819 64.19ZM341.927 65.075C340.442 65.075 339.887 64.64 339.887 63.2V58.16H338.567V57.26H339.887V54.92H341.132V57.26H342.992V58.16H341.132V63.23C341.132 63.98 341.387 64.16 342.182 64.16L342.992 64.13V65C342.692 65.03 342.197 65.075 341.927 65.075Z" fill="#363E4A"/>
<rect x="223" y="50" width="71" height="20" rx="4" fill="#445BE8"/>
<path d="M281 59.5L284 62.5L287 59.5" stroke="#E7E9EB" stroke-width="0.8"/>
<path d="M233.861 65.13C231.768 65.13 230.39 64.259 230.39 61.932H231.651C231.781 63.453 232.535 64.012 233.861 64.012C235.213 64.012 235.954 63.323 235.954 62.335C235.954 61.308 235.343 60.814 234.147 60.814H232.977V59.761H234.017C235.148 59.761 235.824 59.332 235.824 58.357C235.824 57.408 235.057 56.732 233.848 56.732C232.561 56.732 231.898 57.382 231.781 58.552H230.52C230.52 56.745 231.716 55.614 233.861 55.614C235.876 55.614 237.202 56.667 237.202 58.227C237.202 59.397 236.578 60.047 235.655 60.255C236.682 60.515 237.332 61.139 237.332 62.517C237.332 64.103 235.954 65.13 233.861 65.13ZM251.655 65H250.329V60.775C250.329 59.761 250.004 59.28 249.237 59.28C248.431 59.28 247.807 59.995 247.807 61.217V65H246.481V60.775C246.481 59.761 246.156 59.28 245.402 59.28C244.596 59.28 243.985 59.995 243.985 61.217V65H242.659V58.292H243.972V59.462C244.284 58.682 244.908 58.162 245.831 58.162C246.832 58.162 247.43 58.617 247.677 59.514C248.015 58.656 248.717 58.162 249.64 58.162C250.992 58.162 251.655 58.942 251.655 60.567V65ZM254.853 65H253.475V58.292H254.853V65ZM254.164 57.122C253.631 57.122 253.345 56.81 253.345 56.394C253.345 55.978 253.631 55.653 254.164 55.653C254.684 55.653 254.983 55.978 254.983 56.394C254.983 56.81 254.684 57.122 254.164 57.122ZM262.393 65H261.015V60.814C261.015 59.8 260.651 59.28 259.702 59.28C258.701 59.28 258.051 60.034 258.051 61.256V65H256.673V58.292H257.986V59.462C258.35 58.682 259 58.162 260.118 58.162C261.652 58.162 262.393 58.942 262.393 60.567V65ZM266.866 65.13C264.76 65.13 263.954 64.207 263.954 62.92H265.28C265.345 63.687 265.683 64.207 266.879 64.207C268.049 64.207 268.4 63.7 268.4 63.128C268.4 62.595 268.01 62.322 267.373 62.231L266.138 62.049C264.734 61.854 264.136 61.36 264.136 60.242C264.136 59.085 264.864 58.162 266.866 58.162C268.868 58.162 269.596 59.085 269.596 60.268H268.27C268.205 59.644 267.997 59.085 266.853 59.085C265.878 59.085 265.514 59.488 265.514 60.138C265.514 60.684 265.826 60.879 266.346 60.957L267.581 61.139C268.946 61.334 269.778 61.828 269.778 63.05C269.778 64.207 268.972 65.13 266.866 65.13Z" fill="#F4F4F4"/>
<g filter="url(#filter0_d_698_4596)">
<rect x="130" y="83" width="475.922" height="359" rx="6.58716" fill="#F4F4F4"/>
<rect x="400.727" y="371.812" width="182.405" height="44.1611" rx="6.58716" fill="#E8E8E8"/>
<path d="M555.289 391.636L561.465 398.223L567.64 391.636" stroke="#838688" stroke-width="0.988073" stroke-linecap="round"/>
<path d="M156.781 356.429V352.556L153.171 347.049H154.857L157.518 351.199L160.166 347.049H161.866L158.243 352.556V356.429H156.781ZM164.172 356.561C162.011 356.561 160.812 355.19 160.812 353.03C160.812 350.869 162.011 349.499 164.172 349.499C166.332 349.499 167.531 350.869 167.531 353.03C167.531 355.19 166.332 356.561 164.172 356.561ZM164.172 355.493C165.423 355.493 166.135 354.677 166.135 353.03C166.135 351.396 165.423 350.566 164.172 350.566C162.92 350.566 162.209 351.396 162.209 353.03C162.209 354.677 162.92 355.493 164.172 355.493ZM171.158 356.561C169.604 356.561 168.853 355.77 168.853 354.123V349.631H170.249V353.873C170.249 354.901 170.618 355.428 171.58 355.428C172.594 355.428 173.253 354.663 173.253 353.425V349.631H174.65V356.429H173.319V355.256C172.937 356.034 172.291 356.561 171.158 356.561ZM177.627 356.429H176.231V349.631H177.562V351.199C177.917 350 178.523 349.552 179.511 349.552C179.696 349.552 179.959 349.591 180.131 349.631V350.856L179.459 350.83C178.352 350.83 177.627 351.686 177.627 353.201V356.429ZM193.308 356.429H191.793L190.976 354.268H186.681L185.851 356.429H184.349L187.933 347.049H189.724L193.308 356.429ZM190.607 353.135L188.828 348.406L187.05 353.135H190.607ZM196.412 356.561C194.858 356.561 194.107 355.77 194.107 354.123V349.631H195.503V353.873C195.503 354.901 195.872 355.428 196.834 355.428C197.848 355.428 198.507 354.663 198.507 353.425V349.631H199.904V356.429H198.573V355.256C198.191 356.034 197.545 356.561 196.412 356.561ZM204.186 356.561C202.355 356.561 201.222 355.256 201.222 353.03C201.222 350.803 202.355 349.499 204.186 349.499C205.279 349.499 206.03 349.947 206.412 350.79V347.049H207.809V356.429H206.478V355.177C206.096 356.047 205.371 356.561 204.186 356.561ZM204.515 355.493C205.635 355.493 206.412 354.743 206.412 353.03C206.412 351.33 205.635 350.566 204.515 350.566C203.382 350.566 202.618 351.33 202.618 353.03C202.618 354.743 203.382 355.493 204.515 355.493ZM210.787 356.429H209.391V349.631H210.787V356.429ZM210.089 348.445C209.549 348.445 209.259 348.129 209.259 347.707C209.259 347.286 209.549 346.957 210.089 346.957C210.616 346.957 210.919 347.286 210.919 347.707C210.919 348.129 210.616 348.445 210.089 348.445ZM215.465 356.561C213.304 356.561 212.105 355.19 212.105 353.03C212.105 350.935 213.238 349.499 215.386 349.499C217.533 349.499 218.666 350.961 218.666 352.911C218.666 353.043 218.653 353.162 218.64 353.293H213.502C213.541 354.901 214.305 355.599 215.465 355.599C216.426 355.599 217.032 355.098 217.243 354.321H218.521C218.218 355.704 217.23 356.561 215.465 356.561ZM215.386 350.461C214.332 350.461 213.647 351.093 213.502 352.371H217.27C217.125 351.093 216.44 350.461 215.386 350.461ZM225.775 356.429H224.379V352.187C224.379 351.159 224.01 350.632 223.048 350.632C222.034 350.632 221.375 351.396 221.375 352.635V356.429H219.978V349.631H221.309V350.817C221.678 350.026 222.337 349.499 223.47 349.499C225.024 349.499 225.775 350.29 225.775 351.936V356.429ZM230.387 356.561C228.292 356.561 227.093 355.19 227.093 353.03C227.093 350.869 228.292 349.499 230.387 349.499C232.534 349.499 233.469 350.869 233.469 352.134H232.178C232.047 351.291 231.546 350.566 230.387 350.566C229.201 350.566 228.49 351.396 228.49 353.03C228.49 354.677 229.201 355.493 230.387 355.493C231.401 355.493 232.033 354.953 232.178 353.873H233.469C233.469 355.269 232.455 356.561 230.387 356.561ZM237.753 356.561C235.593 356.561 234.394 355.19 234.394 353.03C234.394 350.935 235.527 349.499 237.674 349.499C239.822 349.499 240.955 350.961 240.955 352.911C240.955 353.043 240.942 353.162 240.928 353.293H235.791C235.83 354.901 236.594 355.599 237.753 355.599C238.715 355.599 239.321 355.098 239.532 354.321H240.81C240.507 355.704 239.519 356.561 237.753 356.561ZM237.674 350.461C236.62 350.461 235.935 351.093 235.791 352.371H239.558C239.413 351.093 238.728 350.461 237.674 350.461Z" fill="#121212"/>
<path d="M407.564 355.605H401.477V346.225H402.94V354.407H407.564V355.605ZM410.963 355.737C409.382 355.737 408.526 354.947 408.526 353.682C408.526 352.668 409.145 351.864 410.831 351.719L412.149 351.614C412.952 351.535 413.189 351.35 413.189 350.915C413.189 350.138 412.741 349.677 411.753 349.677C410.831 349.677 410.331 350.072 410.265 350.915H408.895C408.895 349.545 409.738 348.676 411.74 348.676C413.73 348.676 414.586 349.545 414.586 350.915V353.866C414.586 354.789 414.665 355.381 414.797 355.605H413.545C413.334 355.342 413.255 355.065 413.255 354.433C412.886 355.302 412.135 355.737 410.963 355.737ZM411.345 354.775C412.544 354.775 413.189 353.84 413.189 352.72V352.141C413.044 352.325 412.676 352.43 412.149 352.47L411.279 352.549C410.304 352.628 409.922 353.036 409.922 353.59C409.922 354.288 410.344 354.775 411.345 354.775ZM421.964 355.605H420.567V351.363C420.567 350.336 420.199 349.809 419.237 349.809C418.222 349.809 417.564 350.573 417.564 351.811V355.605H416.167V348.808H417.498V349.993C417.867 349.203 418.525 348.676 419.658 348.676C421.213 348.676 421.964 349.466 421.964 351.113V355.605ZM426.246 355.342C424.415 355.342 423.282 353.998 423.282 352.009C423.282 350.02 424.415 348.676 426.246 348.676C427.432 348.676 428.156 349.19 428.538 350.072V348.808H429.869V355.105C429.869 357.213 428.736 358.319 426.615 358.319C424.639 358.319 423.651 357.358 423.651 355.922H424.955C425.047 356.87 425.653 357.384 426.681 357.384C427.814 357.384 428.473 356.778 428.473 355.461V354.051C428.091 354.894 427.34 355.342 426.246 355.342ZM426.575 354.341C427.695 354.341 428.473 353.55 428.473 352.009C428.473 350.481 427.695 349.677 426.575 349.677C425.442 349.677 424.678 350.481 424.678 352.009C424.678 353.55 425.442 354.341 426.575 354.341ZM433.757 355.737C432.202 355.737 431.451 354.947 431.451 353.3V348.808H432.847V353.05C432.847 354.077 433.216 354.604 434.178 354.604C435.193 354.604 435.851 353.84 435.851 352.602V348.808H437.248V355.605H435.917V354.433C435.535 355.21 434.89 355.737 433.757 355.737ZM441.003 355.737C439.422 355.737 438.566 354.947 438.566 353.682C438.566 352.668 439.185 351.864 440.871 351.719L442.189 351.614C442.992 351.535 443.229 351.35 443.229 350.915C443.229 350.138 442.781 349.677 441.793 349.677C440.871 349.677 440.371 350.072 440.305 350.915H438.935C438.935 349.545 439.778 348.676 441.78 348.676C443.77 348.676 444.626 349.545 444.626 350.915V353.866C444.626 354.789 444.705 355.381 444.837 355.605H443.585C443.374 355.342 443.295 355.065 443.295 354.433C442.926 355.302 442.175 355.737 441.003 355.737ZM441.385 354.775C442.584 354.775 443.229 353.84 443.229 352.72V352.141C443.084 352.325 442.716 352.43 442.189 352.47L441.319 352.549C440.344 352.628 439.962 353.036 439.962 353.59C439.962 354.288 440.384 354.775 441.385 354.775ZM448.908 355.342C447.077 355.342 445.944 353.998 445.944 352.009C445.944 350.02 447.077 348.676 448.908 348.676C450.094 348.676 450.818 349.19 451.2 350.072V348.808H452.531V355.105C452.531 357.213 451.398 358.319 449.277 358.319C447.301 358.319 446.313 357.358 446.313 355.922H447.617C447.709 356.87 448.315 357.384 449.343 357.384C450.476 357.384 451.134 356.778 451.134 355.461V354.051C450.752 354.894 450.001 355.342 448.908 355.342ZM449.237 354.341C450.357 354.341 451.134 353.55 451.134 352.009C451.134 350.481 450.357 349.677 449.237 349.677C448.104 349.677 447.34 350.481 447.34 352.009C447.34 353.55 448.104 354.341 449.237 354.341ZM457.209 355.737C455.048 355.737 453.849 354.367 453.849 352.206C453.849 350.112 454.982 348.676 457.13 348.676C459.277 348.676 460.41 350.138 460.41 352.088C460.41 352.22 460.397 352.338 460.384 352.47H455.246C455.285 354.077 456.05 354.775 457.209 354.775C458.171 354.775 458.777 354.275 458.987 353.498H460.265C459.962 354.881 458.974 355.737 457.209 355.737ZM457.13 349.637C456.076 349.637 455.391 350.27 455.246 351.548H459.014C458.869 350.27 458.184 349.637 457.13 349.637Z" fill="#121212"/>
<path d="M161.359 105.859C161.359 107.77 160.094 108.784 158.092 108.784H155.549V112.301H154.087V102.921H158.092C160.094 102.921 161.359 103.949 161.359 105.859ZM159.897 105.859C159.897 104.634 159.199 104.028 157.894 104.028H155.549V107.677H157.894C159.199 107.677 159.897 107.084 159.897 105.859ZM164.069 112.301H162.672V105.504H164.003V107.071C164.359 105.872 164.965 105.425 165.953 105.425C166.137 105.425 166.401 105.464 166.572 105.504V106.729L165.9 106.702C164.793 106.702 164.069 107.559 164.069 109.074V112.301ZM170.56 112.433C168.4 112.433 167.201 111.063 167.201 108.903C167.201 106.742 168.4 105.372 170.56 105.372C172.721 105.372 173.92 106.742 173.92 108.903C173.92 111.063 172.721 112.433 170.56 112.433ZM170.56 111.366C171.812 111.366 172.523 110.549 172.523 108.903C172.523 107.269 171.812 106.439 170.56 106.439C169.309 106.439 168.597 107.269 168.597 108.903C168.597 110.549 169.309 111.366 170.56 111.366ZM174.056 114.884V113.882H174.517C175.004 113.882 175.241 113.593 175.241 113.026V105.504H176.638V113.026C176.638 114.225 176.005 114.884 174.899 114.884H174.056ZM175.94 104.318C175.399 104.318 175.11 104.002 175.11 103.58C175.11 103.159 175.399 102.829 175.94 102.829C176.467 102.829 176.77 103.159 176.77 103.58C176.77 104.002 176.467 104.318 175.94 104.318ZM181.315 112.433C179.155 112.433 177.956 111.063 177.956 108.903C177.956 106.808 179.089 105.372 181.236 105.372C183.384 105.372 184.517 106.834 184.517 108.784C184.517 108.916 184.504 109.034 184.49 109.166H179.352C179.392 110.773 180.156 111.472 181.315 111.472C182.277 111.472 182.883 110.971 183.094 110.194H184.372C184.069 111.577 183.081 112.433 181.315 112.433ZM181.236 106.334C180.182 106.334 179.497 106.966 179.352 108.244H183.12C182.975 106.966 182.29 106.334 181.236 106.334ZM188.859 112.433C186.765 112.433 185.566 111.063 185.566 108.903C185.566 106.742 186.765 105.372 188.859 105.372C191.007 105.372 191.942 106.742 191.942 108.007H190.651C190.519 107.164 190.019 106.439 188.859 106.439C187.674 106.439 186.962 107.269 186.962 108.903C186.962 110.549 187.674 111.366 188.859 111.366C189.874 111.366 190.506 110.826 190.651 109.746H191.942C191.942 111.142 190.928 112.433 188.859 112.433ZM195.633 112.367C194.21 112.367 193.71 111.946 193.71 110.562V106.505H192.603V105.504H193.71V103.448H195.106V105.504H196.674V106.505H195.106V110.602C195.106 111.195 195.33 111.366 195.949 111.366L196.674 111.353V112.301C196.397 112.328 195.91 112.367 195.633 112.367ZM205.431 112.301H203.969V104.12H201.057V102.921H208.356V104.12H205.431V112.301ZM211.67 112.433C209.51 112.433 208.311 111.063 208.311 108.903C208.311 106.742 209.51 105.372 211.67 105.372C213.831 105.372 215.03 106.742 215.03 108.903C215.03 111.063 213.831 112.433 211.67 112.433ZM211.67 111.366C212.922 111.366 213.633 110.549 213.633 108.903C213.633 107.269 212.922 106.439 211.67 106.439C210.419 106.439 209.707 107.269 209.707 108.903C209.707 110.549 210.419 111.366 211.67 111.366ZM219.961 112.433C218.868 112.433 218.13 111.985 217.748 111.142V114.884H216.351V105.504H217.682V106.768C218.051 105.886 218.789 105.372 219.961 105.372C221.792 105.372 222.939 106.676 222.939 108.903C222.939 111.129 221.792 112.433 219.961 112.433ZM219.645 111.366C220.765 111.366 221.542 110.615 221.542 108.903C221.542 107.203 220.765 106.439 219.645 106.439C218.512 106.439 217.748 107.203 217.748 108.903C217.748 110.615 218.512 111.366 219.645 111.366ZM225.653 112.301H224.257V105.504H225.653V112.301ZM224.955 104.318C224.415 104.318 224.125 104.002 224.125 103.58C224.125 103.159 224.415 102.829 224.955 102.829C225.482 102.829 225.785 103.159 225.785 103.58C225.785 104.002 225.482 104.318 224.955 104.318ZM230.265 112.433C228.17 112.433 226.972 111.063 226.972 108.903C226.972 106.742 228.17 105.372 230.265 105.372C232.413 105.372 233.348 106.742 233.348 108.007H232.057C231.925 107.164 231.425 106.439 230.265 106.439C229.079 106.439 228.368 107.269 228.368 108.903C228.368 110.549 229.079 111.366 230.265 111.366C231.28 111.366 231.912 110.826 232.057 109.746H233.348C233.348 111.142 232.334 112.433 230.265 112.433Z" fill="#121212"/>
<rect x="153.039" y="371.812" width="241.926" height="44.1611" rx="6.58716" fill="#E8E8E8"/>
<path d="M367.125 391.636L373.3 398.223L379.476 391.636" stroke="#838688" stroke-width="0.988073" stroke-linecap="round"/>
<path d="M174.544 399H173.088L169.182 389.032H170.484L173.816 397.754L177.148 389.032H178.45L174.544 399ZM180.823 399H179.661V391.776H180.823V399ZM180.235 390.334C179.773 390.334 179.521 390.054 179.521 389.69C179.521 389.326 179.773 389.046 180.235 389.046C180.697 389.046 180.963 389.326 180.963 389.69C180.963 390.054 180.697 390.334 180.235 390.334ZM185.449 399.14C183.503 399.14 182.313 397.754 182.313 395.388C182.313 393.022 183.503 391.636 185.449 391.636C186.681 391.636 187.535 392.14 187.941 393.148V389.032H189.103V399H187.997V397.558C187.591 398.58 186.737 399.14 185.449 399.14ZM185.701 398.244C187.031 398.244 187.941 397.362 187.941 395.388C187.941 393.414 187.031 392.532 185.701 392.532C184.385 392.532 183.475 393.414 183.475 395.388C183.475 397.362 184.385 398.244 185.701 398.244ZM194.049 399.14C191.823 399.14 190.591 397.712 190.591 395.388C190.591 393.162 191.739 391.636 193.965 391.636C196.205 391.636 197.353 393.204 197.353 395.22C197.353 395.332 197.353 395.458 197.325 395.57H191.753C191.781 397.53 192.705 398.328 194.049 398.328C195.211 398.328 195.911 397.712 196.163 396.802H197.199C196.863 398.244 195.869 399.14 194.049 399.14ZM193.965 392.448C192.719 392.448 191.907 393.218 191.753 394.786H196.191C196.037 393.218 195.211 392.448 193.965 392.448ZM202.013 399.14C199.787 399.14 198.555 397.712 198.555 395.388C198.555 393.078 199.787 391.636 202.013 391.636C204.253 391.636 205.485 393.078 205.485 395.388C205.485 397.712 204.253 399.14 202.013 399.14ZM202.013 398.244C203.483 398.244 204.323 397.278 204.323 395.388C204.323 393.498 203.483 392.532 202.013 392.532C200.557 392.532 199.717 393.498 199.717 395.388C199.717 397.278 200.557 398.244 202.013 398.244ZM215.544 399H214.088L210.182 389.032H211.484L214.816 397.754L218.148 389.032H219.45L215.544 399ZM221.823 399H220.661V391.776H221.823V399ZM221.235 390.334C220.773 390.334 220.521 390.054 220.521 389.69C220.521 389.326 220.773 389.046 221.235 389.046C221.697 389.046 221.963 389.326 221.963 389.69C221.963 390.054 221.697 390.334 221.235 390.334ZM226.771 399.14C224.545 399.14 223.313 397.712 223.313 395.388C223.313 393.162 224.461 391.636 226.687 391.636C228.927 391.636 230.075 393.204 230.075 395.22C230.075 395.332 230.075 395.458 230.047 395.57H224.475C224.503 397.53 225.427 398.328 226.771 398.328C227.933 398.328 228.633 397.712 228.885 396.802H229.921C229.585 398.244 228.591 399.14 226.771 399.14ZM226.687 392.448C225.441 392.448 224.629 393.218 224.475 394.786H228.913C228.759 393.218 227.933 392.448 226.687 392.448ZM239.043 399H237.811L236.103 393.274L234.395 399H233.163L230.573 391.776H231.777L233.835 397.698L235.571 391.776H236.635L238.371 397.698L240.429 391.776H241.633L239.043 399ZM245.597 399.14C243.371 399.14 242.139 397.712 242.139 395.388C242.139 393.162 243.287 391.636 245.513 391.636C247.753 391.636 248.901 393.204 248.901 395.22C248.901 395.332 248.901 395.458 248.873 395.57H243.301C243.329 397.53 244.253 398.328 245.597 398.328C246.759 398.328 247.459 397.712 247.711 396.802H248.747C248.411 398.244 247.417 399.14 245.597 399.14ZM245.513 392.448C244.267 392.448 243.455 393.218 243.301 394.786H247.739C247.585 393.218 246.759 392.448 245.513 392.448ZM251.545 399H250.383V391.776H251.489V393.484C251.881 392.224 252.539 391.706 253.617 391.706C253.813 391.706 254.065 391.734 254.275 391.776V392.784L253.575 392.756C252.343 392.756 251.545 393.736 251.545 395.514V399ZM258.245 399.14C256.047 399.14 255.263 398.146 255.263 396.802H256.369C256.439 397.698 256.803 398.342 258.259 398.342C259.701 398.342 260.079 397.698 260.079 396.998C260.079 396.34 259.631 396.018 258.889 395.906L257.475 395.696C256.117 395.5 255.459 394.996 255.459 393.834C255.459 392.63 256.145 391.636 258.245 391.636C260.359 391.636 261.045 392.63 261.045 393.862H259.939C259.869 393.12 259.645 392.434 258.245 392.434C257.055 392.434 256.621 392.924 256.621 393.75C256.621 394.45 257.013 394.674 257.629 394.758L259.057 394.968C260.401 395.164 261.241 395.682 261.241 396.942C261.241 398.146 260.457 399.14 258.245 399.14Z" fill="#525C6A"/>
<path d="M424.672 399H417.826V389.032H424.672V390.026H419.03V393.442H424.224V394.394H419.03V398.006H424.672V399ZM432.065 399H430.903V394.408C430.903 393.204 430.469 392.574 429.307 392.574C428.103 392.574 427.319 393.512 427.319 394.968V399H426.157V391.776H427.263V393.106C427.669 392.21 428.411 391.636 429.629 391.636C431.281 391.636 432.065 392.476 432.065 394.226V399ZM436.689 398.72C434.743 398.72 433.553 397.278 433.553 395.178C433.553 393.078 434.743 391.636 436.689 391.636C437.977 391.636 438.831 392.196 439.237 393.218V391.776H440.343V398.524C440.343 400.75 439.153 401.884 437.011 401.884C434.981 401.884 433.945 400.862 433.945 399.378H435.009C435.107 400.484 435.849 401.086 437.067 401.086C438.397 401.086 439.181 400.372 439.181 398.776V397.208C438.775 398.216 437.921 398.72 436.689 398.72ZM436.941 397.88C438.271 397.88 439.181 396.942 439.181 395.178C439.181 393.414 438.271 392.476 436.941 392.476C435.625 392.476 434.715 393.414 434.715 395.178C434.715 396.942 435.625 397.88 436.941 397.88ZM443.273 399H442.111V389.032H443.273V399ZM446.206 399H445.044V391.776H446.206V399ZM445.618 390.334C445.156 390.334 444.904 390.054 444.904 389.69C444.904 389.326 445.156 389.046 445.618 389.046C446.08 389.046 446.346 389.326 446.346 389.69C446.346 390.054 446.08 390.334 445.618 390.334ZM450.678 399.14C448.48 399.14 447.696 398.146 447.696 396.802H448.802C448.872 397.698 449.236 398.342 450.692 398.342C452.134 398.342 452.512 397.698 452.512 396.998C452.512 396.34 452.064 396.018 451.322 395.906L449.908 395.696C448.55 395.5 447.892 394.996 447.892 393.834C447.892 392.63 448.578 391.636 450.678 391.636C452.792 391.636 453.478 392.63 453.478 393.862H452.372C452.302 393.12 452.078 392.434 450.678 392.434C449.488 392.434 449.054 392.924 449.054 393.75C449.054 394.45 449.446 394.674 450.062 394.758L451.49 394.968C452.834 395.164 453.674 395.682 453.674 396.942C453.674 398.146 452.89 399.14 450.678 399.14ZM461.068 399H459.906V394.408C459.906 393.204 459.472 392.574 458.31 392.574C457.106 392.574 456.322 393.512 456.322 394.968V399H455.16V389.032H456.322V393.036C456.714 392.168 457.456 391.636 458.632 391.636C460.284 391.636 461.068 392.476 461.068 394.226V399Z" fill="#525C6A"/>
<rect x="153.039" y="127.966" width="430.091" height="175.684" rx="6.58716" fill="#E8E8E8"/>
<path d="M176.37 154.566H175.166V150.002H169.468V154.566H168.264V144.598H169.468V148.966H175.166V144.598H176.37V154.566ZM181.399 154.706C179.173 154.706 177.941 153.278 177.941 150.954C177.941 148.644 179.173 147.202 181.399 147.202C183.639 147.202 184.871 148.644 184.871 150.954C184.871 153.278 183.639 154.706 181.399 154.706ZM181.399 153.81C182.869 153.81 183.709 152.844 183.709 150.954C183.709 149.064 182.869 148.098 181.399 148.098C179.943 148.098 179.103 149.064 179.103 150.954C179.103 152.844 179.943 153.81 181.399 153.81ZM193.835 154.566H192.603L190.895 148.84L189.187 154.566H187.955L185.365 147.342H186.569L188.627 153.264L190.363 147.342H191.427L193.163 153.264L195.221 147.342H196.425L193.835 154.566ZM203.949 154.636C202.563 154.636 202.045 154.23 202.045 152.886V148.182H200.813V147.342H202.045V145.158H203.207V147.342H204.943V148.182H203.207V152.914C203.207 153.614 203.445 153.782 204.187 153.782L204.943 153.754V154.566C204.663 154.594 204.201 154.636 203.949 154.636ZM209.097 154.706C206.871 154.706 205.639 153.278 205.639 150.954C205.639 148.644 206.871 147.202 209.097 147.202C211.337 147.202 212.569 148.644 212.569 150.954C212.569 153.278 211.337 154.706 209.097 154.706ZM209.097 153.81C210.567 153.81 211.407 152.844 211.407 150.954C211.407 149.064 210.567 148.098 209.097 148.098C207.641 148.098 206.801 149.064 206.801 150.954C206.801 152.844 207.641 153.81 209.097 153.81ZM227.235 154.566H226.115V149.946C226.115 148.742 225.751 148.14 224.785 148.14C223.805 148.14 223.063 149.05 223.063 150.506V154.566H221.957V149.946C221.957 148.742 221.579 148.14 220.641 148.14C219.661 148.14 218.947 149.05 218.947 150.506V154.566H217.827V147.342H218.933V148.672C219.269 147.776 219.983 147.202 220.977 147.202C222.083 147.202 222.727 147.72 222.965 148.756C223.329 147.734 224.113 147.202 225.107 147.202C226.549 147.202 227.235 148.042 227.235 149.792V154.566ZM231.285 154.706C229.647 154.706 228.723 153.866 228.723 152.522C228.723 151.458 229.395 150.632 231.159 150.478L232.489 150.366C233.469 150.282 233.749 150.072 233.749 149.54C233.749 148.616 233.231 148.042 232.027 148.042C230.907 148.042 230.319 148.518 230.235 149.54H229.115C229.115 148.112 229.997 147.202 232.013 147.202C234.029 147.202 234.911 148.112 234.911 149.54V152.718C234.911 153.698 234.995 154.328 235.135 154.566H234.113C233.889 154.258 233.805 153.964 233.805 153.194C233.413 154.202 232.559 154.706 231.285 154.706ZM231.593 153.894C233.021 153.894 233.749 152.76 233.749 151.416V150.702C233.581 150.926 233.133 151.066 232.489 151.122L231.495 151.206C230.347 151.29 229.885 151.78 229.885 152.452C229.885 153.278 230.389 153.894 231.593 153.894ZM243.12 154.566H241.776L239.214 151.052L237.842 152.368V154.566H236.68V144.598H237.842V151.066L241.636 147.342H242.98L239.998 150.254L243.12 154.566ZM246.947 154.706C244.721 154.706 243.489 153.278 243.489 150.954C243.489 148.728 244.637 147.202 246.863 147.202C249.103 147.202 250.251 148.77 250.251 150.786C250.251 150.898 250.251 151.024 250.223 151.136H244.651C244.679 153.096 245.603 153.894 246.947 153.894C248.109 153.894 248.809 153.278 249.061 152.368H250.097C249.761 153.81 248.767 154.706 246.947 154.706ZM246.863 148.014C245.617 148.014 244.805 148.784 244.651 150.352H249.089C248.935 148.784 248.109 148.014 246.863 148.014ZM261.42 154.566H260.258V149.974C260.258 148.77 259.824 148.14 258.662 148.14C257.458 148.14 256.674 149.078 256.674 150.534V154.566H255.512V144.598H256.674V148.602C257.066 147.734 257.808 147.202 258.984 147.202C260.636 147.202 261.42 148.042 261.42 149.792V154.566ZM266.367 154.706C264.141 154.706 262.909 153.278 262.909 150.954C262.909 148.728 264.057 147.202 266.283 147.202C268.523 147.202 269.671 148.77 269.671 150.786C269.671 150.898 269.671 151.024 269.643 151.136H264.071C264.099 153.096 265.023 153.894 266.367 153.894C267.529 153.894 268.229 153.278 268.481 152.368H269.517C269.181 153.81 268.187 154.706 266.367 154.706ZM266.283 148.014C265.037 148.014 264.225 148.784 264.071 150.352H268.509C268.355 148.784 267.529 148.014 266.283 148.014ZM273.434 154.706C271.796 154.706 270.872 153.866 270.872 152.522C270.872 151.458 271.544 150.632 273.308 150.478L274.638 150.366C275.618 150.282 275.898 150.072 275.898 149.54C275.898 148.616 275.38 148.042 274.176 148.042C273.056 148.042 272.468 148.518 272.384 149.54H271.264C271.264 148.112 272.146 147.202 274.162 147.202C276.178 147.202 277.06 148.112 277.06 149.54V152.718C277.06 153.698 277.144 154.328 277.284 154.566H276.262C276.038 154.258 275.954 153.964 275.954 153.194C275.562 154.202 274.708 154.706 273.434 154.706ZM273.742 153.894C275.17 153.894 275.898 152.76 275.898 151.416V150.702C275.73 150.926 275.282 151.066 274.638 151.122L273.644 151.206C272.496 151.29 272.034 151.78 272.034 152.452C272.034 153.278 272.538 153.894 273.742 153.894ZM279.991 154.566H278.829V144.598H279.991V154.566ZM284.295 154.636C282.909 154.636 282.391 154.23 282.391 152.886V148.182H281.159V147.342H282.391V145.158H283.553V147.342H285.289V148.182H283.553V152.914C283.553 153.614 283.791 153.782 284.533 153.782L285.289 153.754V154.566C285.009 154.594 284.547 154.636 284.295 154.636ZM292.584 154.566H291.422V149.974C291.422 148.77 290.988 148.14 289.826 148.14C288.622 148.14 287.838 149.078 287.838 150.534V154.566H286.676V144.598H287.838V148.602C288.23 147.734 288.972 147.202 290.148 147.202C291.8 147.202 292.584 148.042 292.584 149.792V154.566ZM294.109 157.31V156.47H294.669C295.509 156.47 296.027 156.008 296.433 154.958L293.451 147.342H294.655L296.951 153.6L299.275 147.342H300.479L297.525 154.818C296.755 156.75 296.027 157.31 294.669 157.31H294.109ZM312.789 154.566L311.753 153.558C310.871 154.328 309.765 154.706 308.519 154.706C306.349 154.706 305.187 153.544 305.187 152.102C305.187 150.814 305.747 149.932 307.413 149.302C306.643 148.504 306.321 147.776 306.321 146.894C306.321 145.522 307.287 144.458 309.023 144.458C310.759 144.458 311.739 145.522 311.739 146.894C311.739 148.084 310.913 148.812 308.995 149.484L311.711 152.158C312.131 151.556 312.439 150.758 312.621 149.736H313.685C313.447 151.024 313.013 152.046 312.411 152.844L314.161 154.566H312.789ZM308.589 153.81C309.485 153.81 310.367 153.544 311.081 152.9L307.973 149.848C306.797 150.338 306.349 150.954 306.349 152.004C306.349 153.11 307.343 153.81 308.589 153.81ZM307.427 146.866C307.427 147.58 307.623 148.098 308.435 148.938C309.989 148.378 310.633 147.72 310.633 146.866C310.633 145.872 309.989 145.298 309.023 145.298C308.071 145.298 307.427 145.872 307.427 146.866ZM319.141 157.31V156.47H319.701C320.541 156.47 321.059 156.008 321.465 154.958L318.483 147.342H319.687L321.983 153.6L324.307 147.342H325.511L322.557 154.818C321.787 156.75 321.059 157.31 319.701 157.31H319.141ZM329.141 154.706C327.489 154.706 326.719 153.866 326.719 152.116V147.342H327.881V151.934C327.881 153.138 328.315 153.768 329.477 153.768C330.681 153.768 331.465 152.83 331.465 151.374V147.342H332.627V154.566H331.521V153.236C331.115 154.132 330.373 154.706 329.141 154.706ZM343.804 154.566H342.684V149.946C342.684 148.742 342.32 148.14 341.354 148.14C340.374 148.14 339.632 149.05 339.632 150.506V154.566H338.526V149.946C338.526 148.742 338.148 148.14 337.21 148.14C336.23 148.14 335.516 149.05 335.516 150.506V154.566H334.396V147.342H335.502V148.672C335.838 147.776 336.552 147.202 337.546 147.202C338.652 147.202 339.296 147.72 339.534 148.756C339.898 147.734 340.682 147.202 341.676 147.202C343.118 147.202 343.804 148.042 343.804 149.792V154.566ZM354.98 154.566H353.86V149.946C353.86 148.742 353.496 148.14 352.53 148.14C351.55 148.14 350.808 149.05 350.808 150.506V154.566H349.702V149.946C349.702 148.742 349.324 148.14 348.386 148.14C347.406 148.14 346.692 149.05 346.692 150.506V154.566H345.572V147.342H346.678V148.672C347.014 147.776 347.728 147.202 348.722 147.202C349.828 147.202 350.472 147.72 350.71 148.756C351.074 147.734 351.858 147.202 352.852 147.202C354.294 147.202 354.98 148.042 354.98 149.792V154.566ZM356.505 157.31V156.47H357.065C357.905 156.47 358.423 156.008 358.829 154.958L355.847 147.342H357.051L359.347 153.6L361.671 147.342H362.875L359.921 154.818C359.151 156.75 358.423 157.31 357.065 157.31H356.505ZM370.565 154.706C368.367 154.706 367.583 153.712 367.583 152.368H368.689C368.759 153.264 369.123 153.908 370.579 153.908C372.021 153.908 372.399 153.264 372.399 152.564C372.399 151.906 371.951 151.584 371.209 151.472L369.795 151.262C368.437 151.066 367.779 150.562 367.779 149.4C367.779 148.196 368.465 147.202 370.565 147.202C372.679 147.202 373.365 148.196 373.365 149.428H372.259C372.189 148.686 371.965 148 370.565 148C369.375 148 368.941 148.49 368.941 149.316C368.941 150.016 369.333 150.24 369.949 150.324L371.377 150.534C372.721 150.73 373.561 151.248 373.561 152.508C373.561 153.712 372.777 154.706 370.565 154.706ZM377.33 154.706C375.692 154.706 374.768 153.866 374.768 152.522C374.768 151.458 375.44 150.632 377.204 150.478L378.534 150.366C379.514 150.282 379.794 150.072 379.794 149.54C379.794 148.616 379.276 148.042 378.072 148.042C376.952 148.042 376.364 148.518 376.28 149.54H375.16C375.16 148.112 376.042 147.202 378.058 147.202C380.074 147.202 380.956 148.112 380.956 149.54V152.718C380.956 153.698 381.04 154.328 381.18 154.566H380.158C379.934 154.258 379.85 153.964 379.85 153.194C379.458 154.202 378.604 154.706 377.33 154.706ZM377.638 153.894C379.066 153.894 379.794 152.76 379.794 151.416V150.702C379.626 150.926 379.178 151.066 378.534 151.122L377.54 151.206C376.392 151.29 375.93 151.78 375.93 152.452C375.93 153.278 376.434 153.894 377.638 153.894ZM383.886 154.566H382.724V144.598H383.886V154.566ZM387.938 154.706C386.3 154.706 385.376 153.866 385.376 152.522C385.376 151.458 386.048 150.632 387.812 150.478L389.142 150.366C390.122 150.282 390.402 150.072 390.402 149.54C390.402 148.616 389.884 148.042 388.68 148.042C387.56 148.042 386.972 148.518 386.888 149.54H385.768C385.768 148.112 386.65 147.202 388.666 147.202C390.682 147.202 391.564 148.112 391.564 149.54V152.718C391.564 153.698 391.648 154.328 391.788 154.566H390.766C390.542 154.258 390.458 153.964 390.458 153.194C390.066 154.202 389.212 154.706 387.938 154.706ZM388.246 153.894C389.674 153.894 390.402 152.76 390.402 151.416V150.702C390.234 150.926 389.786 151.066 389.142 151.122L388.148 151.206C387 151.29 386.538 151.78 386.538 152.452C386.538 153.278 387.042 153.894 388.246 153.894ZM396.189 154.706C394.243 154.706 393.053 153.32 393.053 150.954C393.053 148.588 394.243 147.202 396.189 147.202C397.421 147.202 398.275 147.706 398.681 148.714V144.598H399.843V154.566H398.737V153.124C398.331 154.146 397.477 154.706 396.189 154.706ZM396.441 153.81C397.771 153.81 398.681 152.928 398.681 150.954C398.681 148.98 397.771 148.098 396.441 148.098C395.125 148.098 394.215 148.98 394.215 150.954C394.215 152.928 395.125 153.81 396.441 153.81ZM402.185 154.65C401.709 154.65 401.443 154.356 401.443 153.978C401.443 153.614 401.709 153.306 402.185 153.306C402.661 153.306 402.927 153.614 402.927 153.978C402.927 154.356 402.661 154.65 402.185 154.65ZM172.086 177.566H170.882V168.592H167.704V167.598H175.25V168.592H172.086V177.566ZM177.618 177.706C175.98 177.706 175.056 176.866 175.056 175.522C175.056 174.458 175.728 173.632 177.492 173.478L178.822 173.366C179.802 173.282 180.082 173.072 180.082 172.54C180.082 171.616 179.564 171.042 178.36 171.042C177.24 171.042 176.652 171.518 176.568 172.54H175.448C175.448 171.112 176.33 170.202 178.346 170.202C180.362 170.202 181.244 171.112 181.244 172.54V175.718C181.244 176.698 181.328 177.328 181.468 177.566H180.446C180.222 177.258 180.138 176.964 180.138 176.194C179.746 177.202 178.892 177.706 177.618 177.706ZM177.926 176.894C179.354 176.894 180.082 175.76 180.082 174.416V173.702C179.914 173.926 179.466 174.066 178.822 174.122L177.828 174.206C176.68 174.29 176.218 174.78 176.218 175.452C176.218 176.278 176.722 176.894 177.926 176.894ZM184.175 177.566H183.013V167.598H184.175V177.566ZM192.385 177.566H191.041L188.479 174.052L187.107 175.368V177.566H185.945V167.598H187.107V174.066L190.901 170.342H192.245L189.263 173.254L192.385 177.566ZM199.656 177.706C198.018 177.706 197.094 176.866 197.094 175.522C197.094 174.458 197.766 173.632 199.53 173.478L200.86 173.366C201.84 173.282 202.12 173.072 202.12 172.54C202.12 171.616 201.602 171.042 200.398 171.042C199.278 171.042 198.69 171.518 198.606 172.54H197.486C197.486 171.112 198.368 170.202 200.384 170.202C202.4 170.202 203.282 171.112 203.282 172.54V175.718C203.282 176.698 203.366 177.328 203.506 177.566H202.484C202.26 177.258 202.176 176.964 202.176 176.194C201.784 177.202 200.93 177.706 199.656 177.706ZM199.964 176.894C201.392 176.894 202.12 175.76 202.12 174.416V173.702C201.952 173.926 201.504 174.066 200.86 174.122L199.866 174.206C198.718 174.29 198.256 174.78 198.256 175.452C198.256 176.278 198.76 176.894 199.964 176.894ZM208.705 177.706C207.403 177.706 206.563 177.146 206.157 176.124V177.566H205.051V167.598H206.213V171.714C206.619 170.706 207.473 170.202 208.705 170.202C210.651 170.202 211.841 171.588 211.841 173.954C211.841 176.32 210.651 177.706 208.705 177.706ZM208.439 176.81C209.769 176.81 210.679 175.928 210.679 173.954C210.679 171.98 209.769 171.098 208.439 171.098C207.123 171.098 206.213 171.98 206.213 173.954C206.213 175.928 207.123 176.81 208.439 176.81ZM216.507 177.706C214.281 177.706 213.049 176.278 213.049 173.954C213.049 171.644 214.281 170.202 216.507 170.202C218.747 170.202 219.979 171.644 219.979 173.954C219.979 176.278 218.747 177.706 216.507 177.706ZM216.507 176.81C217.977 176.81 218.817 175.844 218.817 173.954C218.817 172.064 217.977 171.098 216.507 171.098C215.051 171.098 214.211 172.064 214.211 173.954C214.211 175.844 215.051 176.81 216.507 176.81ZM223.879 177.706C222.227 177.706 221.457 176.866 221.457 175.116V170.342H222.619V174.934C222.619 176.138 223.053 176.768 224.215 176.768C225.419 176.768 226.203 175.83 226.203 174.374V170.342H227.365V177.566H226.259V176.236C225.853 177.132 225.111 177.706 223.879 177.706ZM231.667 177.636C230.281 177.636 229.763 177.23 229.763 175.886V171.182H228.531V170.342H229.763V168.158H230.925V170.342H232.661V171.182H230.925V175.914C230.925 176.614 231.163 176.782 231.905 176.782L232.661 176.754V177.566C232.381 177.594 231.919 177.636 231.667 177.636ZM247.236 177.566H246.116V172.946C246.116 171.742 245.752 171.14 244.786 171.14C243.806 171.14 243.064 172.05 243.064 173.506V177.566H241.958V172.946C241.958 171.742 241.58 171.14 240.642 171.14C239.662 171.14 238.948 172.05 238.948 173.506V177.566H237.828V170.342H238.934V171.672C239.27 170.776 239.984 170.202 240.978 170.202C242.084 170.202 242.728 170.72 242.966 171.756C243.33 170.734 244.114 170.202 245.108 170.202C246.55 170.202 247.236 171.042 247.236 172.792V177.566ZM251.426 177.706C249.774 177.706 249.004 176.866 249.004 175.116V170.342H250.166V174.934C250.166 176.138 250.6 176.768 251.762 176.768C252.966 176.768 253.75 175.83 253.75 174.374V170.342H254.912V177.566H253.806V176.236C253.4 177.132 252.658 177.706 251.426 177.706ZM257.843 177.566H256.681V167.598H257.843V177.566ZM262.147 177.636C260.761 177.636 260.243 177.23 260.243 175.886V171.182H259.011V170.342H260.243V168.158H261.405V170.342H263.141V171.182H261.405V175.914C261.405 176.614 261.643 176.782 262.385 176.782L263.141 176.754V177.566C262.861 177.594 262.399 177.636 262.147 177.636ZM265.69 177.566H264.528V170.342H265.69V177.566ZM265.102 168.9C264.64 168.9 264.388 168.62 264.388 168.256C264.388 167.892 264.64 167.612 265.102 167.612C265.564 167.612 265.83 167.892 265.83 168.256C265.83 168.62 265.564 168.9 265.102 168.9ZM273.522 177.706C271.884 177.706 270.96 176.866 270.96 175.522C270.96 174.458 271.632 173.632 273.396 173.478L274.726 173.366C275.706 173.282 275.986 173.072 275.986 172.54C275.986 171.616 275.468 171.042 274.264 171.042C273.144 171.042 272.556 171.518 272.472 172.54H271.352C271.352 171.112 272.234 170.202 274.25 170.202C276.266 170.202 277.148 171.112 277.148 172.54V175.718C277.148 176.698 277.232 177.328 277.372 177.566H276.35C276.126 177.258 276.042 176.964 276.042 176.194C275.65 177.202 274.796 177.706 273.522 177.706ZM273.83 176.894C275.258 176.894 275.986 175.76 275.986 174.416V173.702C275.818 173.926 275.37 174.066 274.726 174.122L273.732 174.206C272.584 174.29 272.122 174.78 272.122 175.452C272.122 176.278 272.626 176.894 273.83 176.894ZM281.619 177.706C279.421 177.706 278.637 176.712 278.637 175.368H279.743C279.813 176.264 280.177 176.908 281.633 176.908C283.075 176.908 283.453 176.264 283.453 175.564C283.453 174.906 283.005 174.584 282.263 174.472L280.849 174.262C279.491 174.066 278.833 173.562 278.833 172.4C278.833 171.196 279.519 170.202 281.619 170.202C283.733 170.202 284.419 171.196 284.419 172.428H283.313C283.243 171.686 283.019 171 281.619 171C280.429 171 279.995 171.49 279.995 172.316C279.995 173.016 280.387 173.24 281.003 173.324L282.431 173.534C283.775 173.73 284.615 174.248 284.615 175.508C284.615 176.712 283.831 177.706 281.619 177.706ZM289.755 177.706C288.523 177.706 287.669 177.202 287.263 176.194V180.31H286.101V170.342H287.207V171.784C287.613 170.762 288.453 170.202 289.755 170.202C291.701 170.202 292.891 171.588 292.891 173.954C292.891 176.32 291.701 177.706 289.755 177.706ZM289.489 176.81C290.819 176.81 291.729 175.928 291.729 173.954C291.729 171.98 290.819 171.098 289.489 171.098C288.173 171.098 287.263 171.98 287.263 173.954C287.263 175.928 288.173 176.81 289.489 176.81ZM297.557 177.706C295.331 177.706 294.099 176.278 294.099 173.954C294.099 171.728 295.247 170.202 297.473 170.202C299.713 170.202 300.861 171.77 300.861 173.786C300.861 173.898 300.861 174.024 300.833 174.136H295.261C295.289 176.096 296.213 176.894 297.557 176.894C298.719 176.894 299.419 176.278 299.671 175.368H300.707C300.371 176.81 299.377 177.706 297.557 177.706ZM297.473 171.014C296.227 171.014 295.415 171.784 295.261 173.352H299.699C299.545 171.784 298.719 171.014 297.473 171.014ZM305.437 177.706C303.295 177.706 302.063 176.278 302.063 173.954C302.063 171.644 303.295 170.202 305.437 170.202C307.649 170.202 308.587 171.644 308.587 172.918H307.537C307.397 171.966 306.809 171.098 305.437 171.098C304.065 171.098 303.225 172.064 303.225 173.954C303.225 175.844 304.065 176.81 305.437 176.81C306.641 176.81 307.369 176.152 307.537 174.934H308.587C308.587 176.348 307.565 177.706 305.437 177.706ZM312.471 177.636C311.085 177.636 310.567 177.23 310.567 175.886V171.182H309.335V170.342H310.567V168.158H311.729V170.342H313.465V171.182H311.729V175.914C311.729 176.614 311.967 176.782 312.709 176.782L313.465 176.754V177.566C313.185 177.594 312.723 177.636 312.471 177.636ZM317.554 177.706C315.356 177.706 314.572 176.712 314.572 175.368H315.678C315.748 176.264 316.112 176.908 317.568 176.908C319.01 176.908 319.388 176.264 319.388 175.564C319.388 174.906 318.94 174.584 318.198 174.472L316.784 174.262C315.426 174.066 314.768 173.562 314.768 172.4C314.768 171.196 315.454 170.202 317.554 170.202C319.668 170.202 320.354 171.196 320.354 172.428H319.248C319.178 171.686 318.954 171 317.554 171C316.364 171 315.93 171.49 315.93 172.316C315.93 173.016 316.322 173.24 316.938 173.324L318.366 173.534C319.71 173.73 320.55 174.248 320.55 175.508C320.55 176.712 319.766 177.706 317.554 177.706ZM322.33 179.512L321.728 179.26C322.036 178.756 322.12 178.35 322.12 177.608V176.082H323.114V177.608C323.114 178.476 322.876 179.106 322.33 179.512ZM330.541 177.566H329.379V171.182H328.147V170.342H329.379V169.446C329.379 168.158 329.911 167.528 331.283 167.528C331.535 167.528 331.997 167.57 332.277 167.598V168.41L331.521 168.382C330.779 168.382 330.541 168.718 330.541 169.418V170.342H332.277V171.182H330.541V177.566ZM334.743 177.566H333.581V170.342H334.687V172.05C335.079 170.79 335.737 170.272 336.815 170.272C337.011 170.272 337.263 170.3 337.473 170.342V171.35L336.773 171.322C335.541 171.322 334.743 172.302 334.743 174.08V177.566ZM341.578 177.706C339.352 177.706 338.12 176.278 338.12 173.954C338.12 171.644 339.352 170.202 341.578 170.202C343.818 170.202 345.05 171.644 345.05 173.954C345.05 176.278 343.818 177.706 341.578 177.706ZM341.578 176.81C343.048 176.81 343.888 175.844 343.888 173.954C343.888 172.064 343.048 171.098 341.578 171.098C340.122 171.098 339.282 172.064 339.282 173.954C339.282 175.844 340.122 176.81 341.578 176.81ZM355.936 177.566H354.816V172.946C354.816 171.742 354.452 171.14 353.486 171.14C352.506 171.14 351.764 172.05 351.764 173.506V177.566H350.658V172.946C350.658 171.742 350.28 171.14 349.342 171.14C348.362 171.14 347.648 172.05 347.648 173.506V177.566H346.528V170.342H347.634V171.672C347.97 170.776 348.684 170.202 349.678 170.202C350.784 170.202 351.428 170.72 351.666 171.756C352.03 170.734 352.814 170.202 353.808 170.202C355.25 170.202 355.936 171.042 355.936 172.792V177.566ZM362.646 177.566H361.484V170.342H362.646V177.566ZM362.058 168.9C361.596 168.9 361.344 168.62 361.344 168.256C361.344 167.892 361.596 167.612 362.058 167.612C362.52 167.612 362.786 167.892 362.786 168.256C362.786 168.62 362.52 168.9 362.058 168.9ZM370.325 177.566H369.163V172.974C369.163 171.77 368.729 171.14 367.567 171.14C366.363 171.14 365.579 172.078 365.579 173.534V177.566H364.417V170.342H365.523V171.672C365.929 170.776 366.671 170.202 367.889 170.202C369.541 170.202 370.325 171.042 370.325 172.792V177.566ZM374.949 177.286C373.003 177.286 371.813 175.844 371.813 173.744C371.813 171.644 373.003 170.202 374.949 170.202C376.237 170.202 377.091 170.762 377.497 171.784V170.342H378.603V177.09C378.603 179.316 377.413 180.45 375.271 180.45C373.241 180.45 372.205 179.428 372.205 177.944H373.269C373.367 179.05 374.109 179.652 375.327 179.652C376.657 179.652 377.441 178.938 377.441 177.342V175.774C377.035 176.782 376.181 177.286 374.949 177.286ZM375.201 176.446C376.531 176.446 377.441 175.508 377.441 173.744C377.441 171.98 376.531 171.042 375.201 171.042C373.885 171.042 372.975 171.98 372.975 173.744C372.975 175.508 373.885 176.446 375.201 176.446ZM381.533 177.566H380.371V170.342H381.477V172.05C381.869 170.79 382.527 170.272 383.605 170.272C383.801 170.272 384.053 170.3 384.263 170.342V171.35L383.563 171.322C382.331 171.322 381.533 172.302 381.533 174.08V177.566ZM388.368 177.706C386.142 177.706 384.91 176.278 384.91 173.954C384.91 171.728 386.058 170.202 388.284 170.202C390.524 170.202 391.672 171.77 391.672 173.786C391.672 173.898 391.672 174.024 391.644 174.136H386.072C386.1 176.096 387.024 176.894 388.368 176.894C389.53 176.894 390.23 176.278 390.482 175.368H391.518C391.182 176.81 390.188 177.706 388.368 177.706ZM388.284 171.014C387.038 171.014 386.226 171.784 386.072 173.352H390.51C390.356 171.784 389.53 171.014 388.284 171.014ZM396.01 177.706C394.064 177.706 392.874 176.32 392.874 173.954C392.874 171.588 394.064 170.202 396.01 170.202C397.242 170.202 398.096 170.706 398.502 171.714V167.598H399.664V177.566H398.558V176.124C398.152 177.146 397.298 177.706 396.01 177.706ZM396.262 176.81C397.592 176.81 398.502 175.928 398.502 173.954C398.502 171.98 397.592 171.098 396.262 171.098C394.946 171.098 394.036 171.98 394.036 173.954C394.036 175.928 394.946 176.81 396.262 176.81ZM402.594 177.566H401.432V170.342H402.594V177.566ZM402.006 168.9C401.544 168.9 401.292 168.62 401.292 168.256C401.292 167.892 401.544 167.612 402.006 167.612C402.468 167.612 402.734 167.892 402.734 168.256C402.734 168.62 402.468 168.9 402.006 168.9ZM407.542 177.706C405.316 177.706 404.084 176.278 404.084 173.954C404.084 171.728 405.232 170.202 407.458 170.202C409.698 170.202 410.846 171.77 410.846 173.786C410.846 173.898 410.846 174.024 410.818 174.136H405.246C405.274 176.096 406.198 176.894 407.542 176.894C408.704 176.894 409.404 176.278 409.656 175.368H410.692C410.356 176.81 409.362 177.706 407.542 177.706ZM407.458 171.014C406.212 171.014 405.4 171.784 405.246 173.352H409.684C409.53 171.784 408.704 171.014 407.458 171.014ZM418.236 177.566H417.074V172.974C417.074 171.77 416.64 171.14 415.478 171.14C414.274 171.14 413.49 172.078 413.49 173.534V177.566H412.328V170.342H413.434V171.672C413.84 170.776 414.582 170.202 415.8 170.202C417.452 170.202 418.236 171.042 418.236 172.792V177.566ZM422.402 177.636C421.016 177.636 420.498 177.23 420.498 175.886V171.182H419.266V170.342H420.498V168.158H421.66V170.342H423.396V171.182H421.66V175.914C421.66 176.614 421.898 176.782 422.64 176.782L423.396 176.754V177.566C423.116 177.594 422.654 177.636 422.402 177.636ZM431.265 177.706C429.067 177.706 428.283 176.712 428.283 175.368H429.389C429.459 176.264 429.823 176.908 431.279 176.908C432.721 176.908 433.099 176.264 433.099 175.564C433.099 174.906 432.651 174.584 431.909 174.472L430.495 174.262C429.137 174.066 428.479 173.562 428.479 172.4C428.479 171.196 429.165 170.202 431.265 170.202C433.379 170.202 434.065 171.196 434.065 172.428H432.959C432.889 171.686 432.665 171 431.265 171C430.075 171 429.641 171.49 429.641 172.316C429.641 173.016 430.033 173.24 430.649 173.324L432.077 173.534C433.421 173.73 434.261 174.248 434.261 175.508C434.261 176.712 433.477 177.706 431.265 177.706ZM438.925 177.706C436.699 177.706 435.467 176.278 435.467 173.954C435.467 171.728 436.615 170.202 438.841 170.202C441.081 170.202 442.229 171.77 442.229 173.786C442.229 173.898 442.229 174.024 442.201 174.136H436.629C436.657 176.096 437.581 176.894 438.925 176.894C440.087 176.894 440.787 176.278 441.039 175.368H442.075C441.739 176.81 440.745 177.706 438.925 177.706ZM438.841 171.014C437.595 171.014 436.783 171.784 436.629 173.352H441.067C440.913 171.784 440.087 171.014 438.841 171.014ZM444.872 177.566H443.71V167.598H444.872V177.566ZM449.821 177.706C447.595 177.706 446.363 176.278 446.363 173.954C446.363 171.728 447.511 170.202 449.737 170.202C451.977 170.202 453.125 171.77 453.125 173.786C453.125 173.898 453.125 174.024 453.097 174.136H447.525C447.553 176.096 448.477 176.894 449.821 176.894C450.983 176.894 451.683 176.278 451.935 175.368H452.971C452.635 176.81 451.641 177.706 449.821 177.706ZM449.737 171.014C448.491 171.014 447.679 171.784 447.525 173.352H451.963C451.809 171.784 450.983 171.014 449.737 171.014ZM457.7 177.706C455.558 177.706 454.326 176.278 454.326 173.954C454.326 171.644 455.558 170.202 457.7 170.202C459.912 170.202 460.85 171.644 460.85 172.918H459.8C459.66 171.966 459.072 171.098 457.7 171.098C456.328 171.098 455.488 172.064 455.488 173.954C455.488 175.844 456.328 176.81 457.7 176.81C458.904 176.81 459.632 176.152 459.8 174.934H460.85C460.85 176.348 459.828 177.706 457.7 177.706ZM464.735 177.636C463.349 177.636 462.831 177.23 462.831 175.886V171.182H461.599V170.342H462.831V168.158H463.993V170.342H465.729V171.182H463.993V175.914C463.993 176.614 464.231 176.782 464.973 176.782L465.729 176.754V177.566C465.449 177.594 464.987 177.636 464.735 177.636ZM468.278 177.566H467.116V170.342H468.278V177.566ZM467.69 168.9C467.228 168.9 466.976 168.62 466.976 168.256C466.976 167.892 467.228 167.612 467.69 167.612C468.152 167.612 468.418 167.892 468.418 168.256C468.418 168.62 468.152 168.9 467.69 168.9ZM473.226 177.706C471 177.706 469.768 176.278 469.768 173.954C469.768 171.644 471 170.202 473.226 170.202C475.466 170.202 476.698 171.644 476.698 173.954C476.698 176.278 475.466 177.706 473.226 177.706ZM473.226 176.81C474.696 176.81 475.536 175.844 475.536 173.954C475.536 172.064 474.696 171.098 473.226 171.098C471.77 171.098 470.93 172.064 470.93 173.954C470.93 175.844 471.77 176.81 473.226 176.81ZM484.084 177.566H482.922V172.974C482.922 171.77 482.488 171.14 481.326 171.14C480.122 171.14 479.338 172.078 479.338 173.534V177.566H478.176V170.342H479.282V171.672C479.688 170.776 480.43 170.202 481.648 170.202C483.3 170.202 484.084 171.042 484.084 172.792V177.566ZM492.166 177.636C490.78 177.636 490.262 177.23 490.262 175.886V171.182H489.03V170.342H490.262V168.158H491.424V170.342H493.16V171.182H491.424V175.914C491.424 176.614 491.662 176.782 492.404 176.782L493.16 176.754V177.566C492.88 177.594 492.418 177.636 492.166 177.636ZM497.315 177.706C495.089 177.706 493.857 176.278 493.857 173.954C493.857 171.644 495.089 170.202 497.315 170.202C499.555 170.202 500.787 171.644 500.787 173.954C500.787 176.278 499.555 177.706 497.315 177.706ZM497.315 176.81C498.785 176.81 499.625 175.844 499.625 173.954C499.625 172.064 498.785 171.098 497.315 171.098C495.859 171.098 495.019 172.064 495.019 173.954C495.019 175.844 495.859 176.81 497.315 176.81ZM508.746 177.706C506.548 177.706 505.764 176.712 505.764 175.368H506.87C506.94 176.264 507.304 176.908 508.76 176.908C510.202 176.908 510.58 176.264 510.58 175.564C510.58 174.906 510.132 174.584 509.39 174.472L507.976 174.262C506.618 174.066 505.96 173.562 505.96 172.4C505.96 171.196 506.646 170.202 508.746 170.202C510.86 170.202 511.546 171.196 511.546 172.428H510.44C510.37 171.686 510.146 171 508.746 171C507.556 171 507.122 171.49 507.122 172.316C507.122 173.016 507.514 173.24 508.13 173.324L509.558 173.534C510.902 173.73 511.742 174.248 511.742 175.508C511.742 176.712 510.958 177.706 508.746 177.706ZM516.407 177.706C514.181 177.706 512.949 176.278 512.949 173.954C512.949 171.728 514.097 170.202 516.323 170.202C518.563 170.202 519.711 171.77 519.711 173.786C519.711 173.898 519.711 174.024 519.683 174.136H514.111C514.139 176.096 515.063 176.894 516.407 176.894C517.569 176.894 518.269 176.278 518.521 175.368H519.557C519.221 176.81 518.227 177.706 516.407 177.706ZM516.323 171.014C515.077 171.014 514.265 171.784 514.111 173.352H518.549C518.395 171.784 517.569 171.014 516.323 171.014ZM524.286 177.706C522.144 177.706 520.912 176.278 520.912 173.954C520.912 171.644 522.144 170.202 524.286 170.202C526.498 170.202 527.436 171.644 527.436 172.918H526.386C526.246 171.966 525.658 171.098 524.286 171.098C522.914 171.098 522.074 172.064 522.074 173.954C522.074 175.844 522.914 176.81 524.286 176.81C525.49 176.81 526.218 176.152 526.386 174.934H527.436C527.436 176.348 526.414 177.706 524.286 177.706ZM529.949 177.566H528.787V170.342H529.893V172.05C530.285 170.79 530.943 170.272 532.021 170.272C532.217 170.272 532.469 170.3 532.679 170.342V171.35L531.979 171.322C530.747 171.322 529.949 172.302 529.949 174.08V177.566ZM536.784 177.706C534.558 177.706 533.326 176.278 533.326 173.954C533.326 171.728 534.474 170.202 536.7 170.202C538.94 170.202 540.088 171.77 540.088 173.786C540.088 173.898 540.088 174.024 540.06 174.136H534.488C534.516 176.096 535.44 176.894 536.784 176.894C537.946 176.894 538.646 176.278 538.898 175.368H539.934C539.598 176.81 538.604 177.706 536.784 177.706ZM536.7 171.014C535.454 171.014 534.642 171.784 534.488 173.352H538.926C538.772 171.784 537.946 171.014 536.7 171.014ZM543.967 177.636C542.581 177.636 542.063 177.23 542.063 175.886V171.182H540.831V170.342H542.063V168.158H543.225V170.342H544.961V171.182H543.225V175.914C543.225 176.614 543.463 176.782 544.205 176.782L544.961 176.754V177.566C544.681 177.594 544.219 177.636 543.967 177.636ZM549.115 177.706C546.889 177.706 545.657 176.278 545.657 173.954C545.657 171.728 546.805 170.202 549.031 170.202C551.271 170.202 552.419 171.77 552.419 173.786C552.419 173.898 552.419 174.024 552.391 174.136H546.819C546.847 176.096 547.771 176.894 549.115 176.894C550.277 176.894 550.977 176.278 551.229 175.368H552.265C551.929 176.81 550.935 177.706 549.115 177.706ZM549.031 171.014C547.785 171.014 546.973 171.784 546.819 173.352H551.257C551.103 171.784 550.277 171.014 549.031 171.014ZM170.882 200.706C168.684 200.706 167.899 199.712 167.899 198.368H169.006C169.076 199.264 169.44 199.908 170.896 199.908C172.338 199.908 172.716 199.264 172.716 198.564C172.716 197.906 172.268 197.584 171.526 197.472L170.112 197.262C168.754 197.066 168.096 196.562 168.096 195.4C168.096 194.196 168.782 193.202 170.882 193.202C172.996 193.202 173.682 194.196 173.682 195.428H172.576C172.506 194.686 172.282 194 170.882 194C169.692 194 169.258 194.49 169.258 195.316C169.258 196.016 169.65 196.24 170.266 196.324L171.694 196.534C173.038 196.73 173.878 197.248 173.878 198.508C173.878 199.712 173.094 200.706 170.882 200.706ZM177.646 200.706C176.008 200.706 175.084 199.866 175.084 198.522C175.084 197.458 175.756 196.632 177.52 196.478L178.85 196.366C179.83 196.282 180.11 196.072 180.11 195.54C180.11 194.616 179.592 194.042 178.388 194.042C177.268 194.042 176.68 194.518 176.596 195.54H175.476C175.476 194.112 176.358 193.202 178.374 193.202C180.39 193.202 181.272 194.112 181.272 195.54V198.718C181.272 199.698 181.356 200.328 181.496 200.566H180.474C180.25 200.258 180.166 199.964 180.166 199.194C179.774 200.202 178.92 200.706 177.646 200.706ZM177.954 199.894C179.382 199.894 180.11 198.76 180.11 197.416V196.702C179.942 196.926 179.494 197.066 178.85 197.122L177.856 197.206C176.708 197.29 176.246 197.78 176.246 198.452C176.246 199.278 176.75 199.894 177.954 199.894ZM185.462 200.706C183.81 200.706 183.04 199.866 183.04 198.116V193.342H184.202V197.934C184.202 199.138 184.636 199.768 185.798 199.768C187.002 199.768 187.786 198.83 187.786 197.374V193.342H188.948V200.566H187.842V199.236C187.436 200.132 186.694 200.706 185.462 200.706ZM193.811 200.706C191.669 200.706 190.437 199.278 190.437 196.954C190.437 194.644 191.669 193.202 193.811 193.202C196.023 193.202 196.961 194.644 196.961 195.918H195.911C195.771 194.966 195.183 194.098 193.811 194.098C192.439 194.098 191.599 195.064 191.599 196.954C191.599 198.844 192.439 199.81 193.811 199.81C195.015 199.81 195.743 199.152 195.911 197.934H196.961C196.961 199.348 195.939 200.706 193.811 200.706ZM201.489 200.706C199.263 200.706 198.031 199.278 198.031 196.954C198.031 194.728 199.179 193.202 201.405 193.202C203.645 193.202 204.793 194.77 204.793 196.786C204.793 196.898 204.793 197.024 204.765 197.136H199.193C199.221 199.096 200.145 199.894 201.489 199.894C202.651 199.894 203.351 199.278 203.603 198.368H204.639C204.303 199.81 203.309 200.706 201.489 200.706ZM201.405 194.014C200.159 194.014 199.347 194.784 199.193 196.352H203.631C203.477 194.784 202.651 194.014 201.405 194.014ZM219.463 200.566H218.343V195.946C218.343 194.742 217.979 194.14 217.013 194.14C216.033 194.14 215.291 195.05 215.291 196.506V200.566H214.185V195.946C214.185 194.742 213.807 194.14 212.869 194.14C211.889 194.14 211.175 195.05 211.175 196.506V200.566H210.055V193.342H211.161V194.672C211.497 193.776 212.211 193.202 213.205 193.202C214.311 193.202 214.955 193.72 215.193 194.756C215.557 193.734 216.341 193.202 217.335 193.202C218.777 193.202 219.463 194.042 219.463 195.792V200.566ZM223.513 200.706C221.875 200.706 220.951 199.866 220.951 198.522C220.951 197.458 221.623 196.632 223.387 196.478L224.717 196.366C225.697 196.282 225.977 196.072 225.977 195.54C225.977 194.616 225.459 194.042 224.255 194.042C223.135 194.042 222.547 194.518 222.463 195.54H221.343C221.343 194.112 222.225 193.202 224.241 193.202C226.257 193.202 227.139 194.112 227.139 195.54V198.718C227.139 199.698 227.223 200.328 227.363 200.566H226.341C226.117 200.258 226.033 199.964 226.033 199.194C225.641 200.202 224.787 200.706 223.513 200.706ZM223.821 199.894C225.249 199.894 225.977 198.76 225.977 197.416V196.702C225.809 196.926 225.361 197.066 224.717 197.122L223.723 197.206C222.575 197.29 222.113 197.78 222.113 198.452C222.113 199.278 222.617 199.894 223.821 199.894ZM235.348 200.566H234.004L231.442 197.052L230.07 198.368V200.566H228.908V190.598H230.07V197.066L233.864 193.342H235.208L232.226 196.254L235.348 200.566ZM237.719 200.566H236.557V193.342H237.719V200.566ZM237.131 191.9C236.669 191.9 236.417 191.62 236.417 191.256C236.417 190.892 236.669 190.612 237.131 190.612C237.593 190.612 237.859 190.892 237.859 191.256C237.859 191.62 237.593 191.9 237.131 191.9ZM245.397 200.566H244.235V195.974C244.235 194.77 243.801 194.14 242.639 194.14C241.435 194.14 240.651 195.078 240.651 196.534V200.566H239.489V193.342H240.595V194.672C241.001 193.776 241.743 193.202 242.961 193.202C244.613 193.202 245.397 194.042 245.397 195.792V200.566ZM250.022 200.286C248.076 200.286 246.886 198.844 246.886 196.744C246.886 194.644 248.076 193.202 250.022 193.202C251.31 193.202 252.164 193.762 252.57 194.784V193.342H253.676V200.09C253.676 202.316 252.486 203.45 250.344 203.45C248.314 203.45 247.278 202.428 247.278 200.944H248.342C248.44 202.05 249.182 202.652 250.4 202.652C251.73 202.652 252.514 201.938 252.514 200.342V198.774C252.108 199.782 251.254 200.286 250.022 200.286ZM250.274 199.446C251.604 199.446 252.514 198.508 252.514 196.744C252.514 194.98 251.604 194.042 250.274 194.042C248.958 194.042 248.048 194.98 248.048 196.744C248.048 198.508 248.958 199.446 250.274 199.446ZM255.738 202.512L255.136 202.26C255.444 201.756 255.528 201.35 255.528 200.608V199.082H256.522V200.608C256.522 201.476 256.284 202.106 255.738 202.512ZM265.81 200.706C264.578 200.706 263.724 200.202 263.318 199.194V203.31H262.156V193.342H263.262V194.784C263.668 193.762 264.508 193.202 265.81 193.202C267.756 193.202 268.946 194.588 268.946 196.954C268.946 199.32 267.756 200.706 265.81 200.706ZM265.544 199.81C266.874 199.81 267.784 198.928 267.784 196.954C267.784 194.98 266.874 194.098 265.544 194.098C264.228 194.098 263.318 194.98 263.318 196.954C263.318 198.928 264.228 199.81 265.544 199.81ZM273.612 200.706C271.386 200.706 270.154 199.278 270.154 196.954C270.154 194.728 271.302 193.202 273.528 193.202C275.768 193.202 276.916 194.77 276.916 196.786C276.916 196.898 276.916 197.024 276.888 197.136H271.316C271.344 199.096 272.268 199.894 273.612 199.894C274.774 199.894 275.474 199.278 275.726 198.368H276.762C276.426 199.81 275.432 200.706 273.612 200.706ZM273.528 194.014C272.282 194.014 271.47 194.784 271.316 196.352H275.754C275.6 194.784 274.774 194.014 273.528 194.014ZM279.56 200.566H278.398V193.342H279.504V195.05C279.896 193.79 280.554 193.272 281.632 193.272C281.828 193.272 282.08 193.3 282.29 193.342V194.35L281.59 194.322C280.358 194.322 279.56 195.302 279.56 197.08V200.566ZM285.378 200.566H284.216V194.182H282.984V193.342H284.216V192.446C284.216 191.158 284.748 190.528 286.12 190.528C286.372 190.528 286.834 190.57 287.114 190.598V191.41L286.358 191.382C285.616 191.382 285.378 191.718 285.378 192.418V193.342H287.114V194.182H285.378V200.566ZM291.132 200.706C288.906 200.706 287.674 199.278 287.674 196.954C287.674 194.728 288.822 193.202 291.048 193.202C293.288 193.202 294.436 194.77 294.436 196.786C294.436 196.898 294.436 197.024 294.408 197.136H288.836C288.864 199.096 289.788 199.894 291.132 199.894C292.294 199.894 292.994 199.278 293.246 198.368H294.282C293.946 199.81 292.952 200.706 291.132 200.706ZM291.048 194.014C289.802 194.014 288.99 194.784 288.836 196.352H293.274C293.12 194.784 292.294 194.014 291.048 194.014ZM299.011 200.706C296.869 200.706 295.637 199.278 295.637 196.954C295.637 194.644 296.869 193.202 299.011 193.202C301.223 193.202 302.161 194.644 302.161 195.918H301.111C300.971 194.966 300.383 194.098 299.011 194.098C297.639 194.098 296.799 195.064 296.799 196.954C296.799 198.844 297.639 199.81 299.011 199.81C300.215 199.81 300.943 199.152 301.111 197.934H302.161C302.161 199.348 301.139 200.706 299.011 200.706ZM306.046 200.636C304.66 200.636 304.142 200.23 304.142 198.886V194.182H302.91V193.342H304.142V191.158H305.304V193.342H307.04V194.182H305.304V198.914C305.304 199.614 305.542 199.782 306.284 199.782L307.04 199.754V200.566C306.76 200.594 306.298 200.636 306.046 200.636ZM313.369 200.566H312.207V193.342H313.313V195.05C313.705 193.79 314.363 193.272 315.441 193.272C315.637 193.272 315.889 193.3 316.099 193.342V194.35L315.399 194.322C314.167 194.322 313.369 195.302 313.369 197.08V200.566ZM320.204 200.706C317.978 200.706 316.746 199.278 316.746 196.954C316.746 194.728 317.894 193.202 320.12 193.202C322.36 193.202 323.508 194.77 323.508 196.786C323.508 196.898 323.508 197.024 323.48 197.136H317.908C317.936 199.096 318.86 199.894 320.204 199.894C321.366 199.894 322.066 199.278 322.318 198.368H323.354C323.018 199.81 322.024 200.706 320.204 200.706ZM320.12 194.014C318.874 194.014 318.062 194.784 317.908 196.352H322.346C322.192 194.784 321.366 194.014 320.12 194.014ZM328.083 200.706C325.941 200.706 324.709 199.278 324.709 196.954C324.709 194.644 325.941 193.202 328.083 193.202C330.295 193.202 331.233 194.644 331.233 195.918H330.183C330.043 194.966 329.455 194.098 328.083 194.098C326.711 194.098 325.871 195.064 325.871 196.954C325.871 198.844 326.711 199.81 328.083 199.81C329.287 199.81 330.015 199.152 330.183 197.934H331.233C331.233 199.348 330.211 200.706 328.083 200.706ZM333.746 200.566H332.584V193.342H333.746V200.566ZM333.158 191.9C332.696 191.9 332.444 191.62 332.444 191.256C332.444 190.892 332.696 190.612 333.158 190.612C333.62 190.612 333.886 190.892 333.886 191.256C333.886 191.62 333.62 191.9 333.158 191.9ZM339.17 200.706C337.938 200.706 337.084 200.202 336.678 199.194V203.31H335.516V193.342H336.622V194.784C337.028 193.762 337.868 193.202 339.17 193.202C341.116 193.202 342.306 194.588 342.306 196.954C342.306 199.32 341.116 200.706 339.17 200.706ZM338.904 199.81C340.234 199.81 341.144 198.928 341.144 196.954C341.144 194.98 340.234 194.098 338.904 194.098C337.588 194.098 336.678 194.98 336.678 196.954C336.678 198.928 337.588 199.81 338.904 199.81ZM346.972 200.706C344.746 200.706 343.514 199.278 343.514 196.954C343.514 194.728 344.662 193.202 346.888 193.202C349.128 193.202 350.276 194.77 350.276 196.786C350.276 196.898 350.276 197.024 350.248 197.136H344.676C344.704 199.096 345.628 199.894 346.972 199.894C348.134 199.894 348.834 199.278 349.086 198.368H350.122C349.786 199.81 348.792 200.706 346.972 200.706ZM346.888 194.014C345.642 194.014 344.83 194.784 344.676 196.352H349.114C348.96 194.784 348.134 194.014 346.888 194.014ZM354.46 200.706C352.262 200.706 351.478 199.712 351.478 198.368H352.584C352.654 199.264 353.018 199.908 354.474 199.908C355.916 199.908 356.294 199.264 356.294 198.564C356.294 197.906 355.846 197.584 355.104 197.472L353.69 197.262C352.332 197.066 351.674 196.562 351.674 195.4C351.674 194.196 352.36 193.202 354.46 193.202C356.574 193.202 357.26 194.196 357.26 195.428H356.154C356.084 194.686 355.86 194 354.46 194C353.27 194 352.836 194.49 352.836 195.316C352.836 196.016 353.228 196.24 353.844 196.324L355.272 196.534C356.616 196.73 357.456 197.248 357.456 198.508C357.456 199.712 356.672 200.706 354.46 200.706ZM359.236 202.512L358.634 202.26C358.942 201.756 359.026 201.35 359.026 200.608V199.082H360.02V200.608C360.02 201.476 359.782 202.106 359.236 202.512ZM368.832 200.706C366.606 200.706 365.374 199.278 365.374 196.954C365.374 194.728 366.522 193.202 368.748 193.202C370.988 193.202 372.136 194.77 372.136 196.786C372.136 196.898 372.136 197.024 372.108 197.136H366.536C366.564 199.096 367.488 199.894 368.832 199.894C369.994 199.894 370.694 199.278 370.946 198.368H371.982C371.646 199.81 370.652 200.706 368.832 200.706ZM368.748 194.014C367.502 194.014 366.69 194.784 366.536 196.352H370.974C370.82 194.784 369.994 194.014 368.748 194.014ZM376.015 200.636C374.629 200.636 374.111 200.23 374.111 198.886V194.182H372.879V193.342H374.111V191.158H375.273V193.342H377.009V194.182H375.273V198.914C375.273 199.614 375.511 199.782 376.253 199.782L377.009 199.754V200.566C376.729 200.594 376.267 200.636 376.015 200.636ZM381.08 200.706C378.938 200.706 377.706 199.278 377.706 196.954C377.706 194.644 378.938 193.202 381.08 193.202C383.292 193.202 384.23 194.644 384.23 195.918H383.18C383.04 194.966 382.452 194.098 381.08 194.098C379.708 194.098 378.868 195.064 378.868 196.954C378.868 198.844 379.708 199.81 381.08 199.81C382.284 199.81 383.012 199.152 383.18 197.934H384.23C384.23 199.348 383.208 200.706 381.08 200.706ZM386.154 200.65C385.678 200.65 385.412 200.356 385.412 199.978C385.412 199.614 385.678 199.306 386.154 199.306C386.63 199.306 386.896 199.614 386.896 199.978C386.896 200.356 386.63 200.65 386.154 200.65Z" fill="#525C6A"/>
</g>
</g>
<defs>
<filter id="filter0_d_698_4596" x="82" y="43" width="595.922" height="479" filterUnits="userSpaceOnUse" color-interpolation-filters="sRGB">
<feFlood flood-opacity="0" result="BackgroundImageFix"/>
<feColorMatrix in="SourceAlpha" type="matrix" values="0 0 0 0 0 0 0 0 0 0 0 0 0 0 0 0 0 0 127 0" result="hardAlpha"/>
<feOffset dx="12" dy="20"/>
<feGaussianBlur stdDeviation="30"/>
<feComposite in2="hardAlpha" operator="out"/>
<feColorMatrix type="matrix" values="0 0 0 0 0 0 0 0 0 0 0 0 0 0 0 0 0 0 0.1 0"/>
<feBlend mode="normal" in2="BackgroundImageFix" result="effect1_dropShadow_698_4596"/>
<feBlend mode="normal" in="SourceGraphic" in2="effect1_dropShadow_698_4596" result="shape"/>
</filter>
<clipPath id="clip0_698_4596">
<rect width="736" height="492" fill="white"/>
</clipPath>
</defs>
</svg>
