<svg width="280" height="280" viewBox="0 0 280 280" fill="none" xmlns="http://www.w3.org/2000/svg">
<path fill-rule="evenodd" clip-rule="evenodd" d="M211.116 104.806V228.62H68.8763V51.3802H147.951L159.88 51.3802C159.811 51.8085 159.775 52.2479 159.775 52.6958V88.5057C159.775 97.5522 167.108 104.886 176.155 104.886H209.965C210.356 104.886 210.74 104.859 211.116 104.806ZM176.05 51.3802H176.074L188.551 40.9825L176.074 51.3802L207.012 88.5057H176.155V52.6958C176.155 52.2479 176.119 51.8085 176.05 51.3802ZM227.496 228.846C227.496 233.13 225.82 237.239 222.836 240.269C219.853 243.298 215.806 245 211.587 245H68.4052C64.1858 245 60.1393 243.298 57.1558 240.269C54.1722 237.239 52.4961 233.13 52.4961 228.846V51.1538C52.4961 46.8696 54.1722 42.7608 57.1558 39.7314C60.1393 36.7019 64.1858 35 68.4052 35H147.951H176.074C180.935 35 185.546 37.1593 188.658 40.8938L219.903 78.3882C224.809 84.2758 227.496 91.697 227.496 99.3609V228.846ZM88.056 87.5C88.056 82.9767 91.7228 79.3099 96.2461 79.3099H122.496C127.019 79.3099 130.686 82.9767 130.686 87.5C130.686 92.0233 127.019 95.6901 122.496 95.6901H96.2461C91.7228 95.6901 88.056 92.0233 88.056 87.5ZM88.056 166.25C88.056 161.727 91.7228 158.06 96.2461 158.06H183.746C188.269 158.06 191.936 161.727 191.936 166.25C191.936 170.773 188.269 174.44 183.746 174.44H96.2461C91.7228 174.44 88.056 170.773 88.056 166.25ZM88.056 201.25C88.056 196.727 91.7228 193.06 96.2461 193.06H148.746C153.269 193.06 156.936 196.727 156.936 201.25C156.936 205.773 153.269 209.44 148.746 209.44H96.2461C91.7228 209.44 88.056 205.773 88.056 201.25Z" fill="#B4C5FA"/>
</svg>
