<svg width="280" height="280" viewBox="0 0 280 280" fill="none" xmlns="http://www.w3.org/2000/svg">
<path fill-rule="evenodd" clip-rule="evenodd" d="M113.493 69.48H209.367V208.912H113.493L113.493 69.48ZM95.7089 69.48H69.9357V208.912H95.7089L95.7089 69.48ZM52.1515 69.48C52.1515 59.6581 60.1138 51.6958 69.9357 51.6958H209.367C219.189 51.6958 227.152 59.658 227.152 69.48V208.912C227.152 218.734 219.189 226.696 209.367 226.696H69.9357C60.1138 226.696 52.1515 218.734 52.1515 208.912V69.48ZM34.7842 86.6954C34.7842 81.7844 30.8031 77.8033 25.8921 77.8033C20.9811 77.8033 17 81.7844 17 86.6954V191.695C17 196.606 20.9811 200.587 25.8921 200.587C30.8031 200.587 34.7842 196.606 34.7842 191.695V86.6954ZM262.366 86.6954C262.366 81.7844 258.385 77.8033 253.474 77.8033C248.563 77.8033 244.582 81.7844 244.582 86.6954V191.695C244.582 196.606 248.563 200.587 253.474 200.587C258.385 200.587 262.366 196.606 262.366 191.695V86.6954Z" fill="#B4C5FA"/>
</svg>
