<svg width="280" height="280" viewBox="0 0 280 280" fill="none" xmlns="http://www.w3.org/2000/svg">
<path fill-rule="evenodd" clip-rule="evenodd" d="M222.182 58.3802L58.3802 58.3801L58.3802 76.9505H69.8676C74.3908 76.9505 78.0576 80.6174 78.0576 85.1406C78.0576 89.6639 74.3908 93.3307 69.8676 93.3307H58.3802L58.3802 175.232H69.8676C74.3908 175.232 78.0576 178.898 78.0576 183.422C78.0576 187.945 74.3908 191.612 69.8676 191.612H58.3801L58.3801 222.182L222.182 222.182V191.612H210.445C205.922 191.612 202.255 187.945 202.255 183.422C202.255 178.898 205.922 175.232 210.445 175.232H222.182L222.182 93.3307H210.445C205.922 93.3307 202.255 89.6639 202.255 85.1406C202.255 80.6174 205.922 76.9505 210.445 76.9505H222.182V58.3802ZM58.3802 42C49.3336 42 42 49.3336 42 58.3801V222.182C42 231.228 49.3336 238.562 58.3801 238.562H222.182C231.228 238.562 238.562 231.228 238.562 222.182V58.3802C238.562 49.3336 231.228 42 222.182 42H58.3802ZM96.788 85.1406C96.788 80.6174 100.455 76.9505 104.978 76.9505H122.533C127.056 76.9505 130.723 80.6174 130.723 85.1406C130.723 89.6639 127.056 93.3307 122.533 93.3307H104.978C100.455 93.3307 96.788 89.6639 96.788 85.1406ZM104.978 175.232C100.455 175.232 96.788 178.898 96.788 183.422C96.788 187.945 100.455 191.612 104.978 191.612H122.533C127.056 191.612 130.723 187.945 130.723 183.422C130.723 178.898 127.056 175.232 122.533 175.232H104.978ZM149.454 85.1406C149.454 80.6174 153.12 76.9505 157.644 76.9505H175.199C179.722 76.9505 183.389 80.6174 183.389 85.1406C183.389 89.6639 179.722 93.3307 175.199 93.3307H157.644C153.12 93.3307 149.454 89.6639 149.454 85.1406ZM149.454 183.422C149.454 178.898 153.12 175.232 157.644 175.232H175.199C179.722 175.232 183.389 178.898 183.389 183.422C183.389 187.945 179.722 191.612 175.199 191.612H157.644C153.12 191.612 149.454 187.945 149.454 183.422Z" fill="#B4C5FA"/>
</svg>
