<svg width="120" height="108" viewBox="0 0 120 108" fill="none" xmlns="http://www.w3.org/2000/svg">
<g style="mix-blend-mode:multiply">
<circle cx="76" cy="64" r="40" fill="#D1DEFC"/>
</g>
<path fill-rule="evenodd" clip-rule="evenodd" d="M79 39.4167L87.3333 24.8333L79 10.25H62.3333L54 24.8333L45.6667 10.25H29L20.6667 24.8333L29 39.4167H12.3333L4 54L12.3333 68.5833H29L20.6667 83.1667L29 97.75H45.6667L54 83.1667L62.3333 97.75H79L87.3333 83.1667L79 68.5833H95.6667L104 54L95.6667 39.4167H79ZM70.6667 54L79 68.5833H62.3333L70.6667 54ZM62.3333 39.4167L70.6667 54L79 39.4167H62.3333ZM45.6667 39.4167H62.3333L54 24.8333L45.6667 39.4167ZM37.3333 54L29 39.4167H45.6667L37.3333 54ZM45.6667 68.5833H29L37.3333 54L45.6667 68.5833ZM45.6667 68.5833L54 83.1667L62.3333 68.5833H45.6667Z" fill="#000230"/>
</svg>
