<svg width="120" height="108" viewBox="0 0 120 108" fill="none" xmlns="http://www.w3.org/2000/svg">
<rect width="120" height="108" fill="white"/>
<g style="mix-blend-mode:multiply">
<circle cx="76" cy="64" r="40" fill="#D1DEFC"/>
</g>
<path fill-rule="evenodd" clip-rule="evenodd" d="M54 10.25L39.4167 24.8333L24.8333 10.25H10.25V24.8333L24.8333 39.4167L10.25 54L24.8333 68.5833L10.25 83.1667V97.75H24.8333L39.4167 83.1667L54 97.75L68.5833 83.1667L83.1667 97.75H97.75V83.1667L83.1667 68.5833L97.75 54L83.1667 39.4167L97.75 24.8333V10.25H83.1667L68.5833 24.8333L54 10.25ZM68.5833 24.8333L83.1667 39.4167L68.5833 54L83.1667 68.5833L68.5833 83.1667L54 68.5833L39.4167 83.1667L24.8333 68.5833L39.4167 54L24.8333 39.4167L39.4167 24.8333L54 39.4167L68.5833 24.8333Z" fill="#000230"/>
</svg>
