<svg width="28" height="28" viewBox="0 0 28 28" fill="none" xmlns="http://www.w3.org/2000/svg">
<ellipse cx="13.9998" cy="14" rx="13.9998" ry="14" fill="#CAD0D3"/>
<g clip-path="url(#clip0_355_1476)">
<path d="M6.49805 9.625H21.4978M10.873 9.625V9C10.873 8.1712 11.2022 7.37634 11.7883 6.79029C12.3743 6.20424 13.1691 5.875 13.9979 5.875C14.8267 5.875 15.6216 6.20424 16.2076 6.79029C16.7937 7.37634 17.1229 8.1712 17.1229 9V9.625M12.123 12.125V19M15.8729 12.125V19M8.37302 9.625H19.6229V20.875C19.6229 21.2065 19.4912 21.5245 19.2567 21.7589C19.0223 21.9933 18.7044 22.125 18.3729 22.125H9.623C9.29149 22.125 8.97355 21.9933 8.73913 21.7589C8.50471 21.5245 8.37302 21.2065 8.37302 20.875V9.625Z" stroke="#363E4A" stroke-width="1.3" stroke-linecap="round" stroke-linejoin="round"/>
</g>
<defs>
<clipPath id="clip0_355_1476">
<rect width="17.4998" height="17.5" fill="white" transform="translate(5.24805 5.25)"/>
</clipPath>
</defs>
</svg>
