<svg width="34" height="34" viewBox="0 0 34 34" fill="none" xmlns="http://www.w3.org/2000/svg">
<g filter="url(#filter0_d_17510_1765)">
<path d="M2 13.8C2 9.31958 2 7.07937 2.87195 5.36808C3.63893 3.86278 4.86278 2.63893 6.36808 1.87195C8.07937 1 10.3196 1 14.8 1H19.2C23.6804 1 25.9206 1 27.6319 1.87195C29.1372 2.63893 30.3611 3.86278 31.1281 5.36808C32 7.07937 32 9.31958 32 13.8V18.2C32 22.6804 32 24.9206 31.1281 26.6319C30.3611 28.1372 29.1372 29.3611 27.6319 30.1281C25.9206 31 23.6804 31 19.2 31H14.8C10.3196 31 8.07937 31 6.36808 30.1281C4.86278 29.3611 3.63893 28.1372 2.87195 26.6319C2 24.9206 2 22.6804 2 18.2V13.8Z" fill="url(#paint0_linear_17510_1765)"/>
<path d="M2.25 13.8C2.25 11.5557 2.25019 9.88745 2.35816 8.56597C2.46589 7.24742 2.67968 6.2961 3.0947 5.48157C3.83772 4.02332 5.02332 2.83772 6.48157 2.0947C7.2961 1.67968 8.24742 1.46589 9.56597 1.35816C10.8874 1.25019 12.5557 1.25 14.8 1.25H19.2C21.4443 1.25 23.1126 1.25019 24.434 1.35816C25.7526 1.46589 26.7039 1.67968 27.5184 2.0947C28.9767 2.83772 30.1623 4.02332 30.9053 5.48157C31.3203 6.2961 31.5341 7.24742 31.6418 8.56597C31.7498 9.88745 31.75 11.5557 31.75 13.8V18.2C31.75 20.4443 31.7498 22.1126 31.6418 23.434C31.5341 24.7526 31.3203 25.7039 30.9053 26.5184C30.1623 27.9767 28.9767 29.1623 27.5184 29.9053C26.7039 30.3203 25.7526 30.5341 24.434 30.6418C23.1126 30.7498 21.4443 30.75 19.2 30.75H14.8C12.5557 30.75 10.8874 30.7498 9.56597 30.6418C8.24742 30.5341 7.2961 30.3203 6.48157 29.9053C5.02332 29.1623 3.83772 27.9767 3.0947 26.5184C2.67968 25.7039 2.46589 24.7526 2.35816 23.434C2.25019 22.1126 2.25 20.4443 2.25 18.2V13.8Z" stroke="#D0D5DD" stroke-width="0.5"/>
<path d="M12.2 7.6248C12.2 7.23821 12.5134 6.9248 12.9 6.9248H21.1C21.4866 6.9248 21.8 7.23821 21.8 7.6248C21.8 8.0114 21.4866 8.3248 21.1 8.3248H12.9C12.5134 8.3248 12.2 8.0114 12.2 7.6248Z" fill="white" fill-opacity="0.5"/>
<path d="M10.6 10.0248C10.6 9.63823 10.9134 9.32483 11.3 9.32483H22.7C23.0866 9.32483 23.4 9.63823 23.4 10.0248C23.4 10.4114 23.0866 10.7248 22.7 10.7248H11.3C10.9134 10.7248 10.6 10.4114 10.6 10.0248Z" fill="white" fill-opacity="0.75"/>
<rect x="9" y="11.7248" width="16" height="9.60093" rx="1.60008" fill="white"/>
<path d="M9.504 27.04C8.604 27.04 8.12 26.444 8.12 25.576C8.12 24.708 8.604 24.112 9.504 24.112C10.28 24.112 10.784 24.576 10.784 25.168H10.368C10.316 24.772 10.036 24.476 9.504 24.476C8.884 24.476 8.564 24.872 8.564 25.576C8.564 26.28 8.884 26.676 9.504 26.676C10.028 26.676 10.316 26.396 10.368 25.96H10.784C10.784 26.564 10.296 27.04 9.504 27.04ZM12.8623 27H12.4383V25.712C12.4383 25.4 12.3263 25.24 12.0343 25.24C11.7263 25.24 11.5263 25.472 11.5263 25.848V27H11.1023V24.152H11.5263V25.264C11.6383 25.04 11.8343 24.896 12.1623 24.896C12.6343 24.896 12.8623 25.136 12.8623 25.636V27ZM13.9225 27.04C13.4425 27.04 13.1825 26.8 13.1825 26.416C13.1825 26.108 13.3705 25.864 13.8825 25.82L14.2825 25.788C14.5265 25.764 14.5985 25.708 14.5985 25.576C14.5985 25.34 14.4625 25.2 14.1625 25.2C13.8825 25.2 13.7305 25.32 13.7105 25.576H13.2945C13.2945 25.16 13.5505 24.896 14.1585 24.896C14.7625 24.896 15.0225 25.16 15.0225 25.576V26.472C15.0225 26.752 15.0465 26.932 15.0865 27H14.7065C14.6425 26.92 14.6185 26.836 14.6185 26.644C14.5065 26.908 14.2785 27.04 13.9225 27.04ZM14.0385 26.748C14.4025 26.748 14.5985 26.464 14.5985 26.124V25.948C14.5545 26.004 14.4425 26.036 14.2825 26.048L14.0185 26.072C13.7225 26.096 13.6065 26.22 13.6065 26.388C13.6065 26.6 13.7345 26.748 14.0385 26.748ZM16.1436 27.02C15.7116 27.02 15.5596 26.892 15.5596 26.472V25.24H15.2236V24.936H15.5596V24.312H15.9836V24.936H16.4596V25.24H15.9836V26.484C15.9836 26.664 16.0516 26.716 16.2396 26.716L16.4596 26.712V27C16.3756 27.008 16.2276 27.02 16.1436 27.02ZM17.8225 27.04C17.0505 27.04 16.6825 26.704 16.6825 26.096H17.1105C17.1545 26.508 17.3345 26.704 17.8305 26.704C18.3185 26.704 18.5185 26.5 18.5185 26.184C18.5185 25.976 18.4025 25.828 17.9505 25.764L17.5545 25.704C16.9665 25.62 16.7545 25.408 16.7545 24.976C16.7545 24.468 17.1025 24.112 17.8225 24.112C18.5425 24.112 18.8905 24.46 18.8905 25.016H18.4745C18.4305 24.64 18.2425 24.448 17.8105 24.448C17.3865 24.448 17.1985 24.648 17.1985 24.952C17.1985 25.168 17.2985 25.284 17.6985 25.34L18.0945 25.4C18.6585 25.48 18.9625 25.696 18.9625 26.156C18.9625 26.696 18.5945 27.04 17.8225 27.04ZM19.706 27H19.282V24.152H19.706V27ZM20.5303 27H20.1063V24.936H20.5303V27ZM20.3183 24.576C20.1543 24.576 20.0663 24.48 20.0663 24.352C20.0663 24.224 20.1543 24.124 20.3183 24.124C20.4783 24.124 20.5703 24.224 20.5703 24.352C20.5703 24.48 20.4783 24.576 20.3183 24.576ZM21.7505 27.04C21.1945 27.04 20.8505 26.644 20.8505 25.968C20.8505 25.292 21.1945 24.896 21.7505 24.896C22.0825 24.896 22.3105 25.032 22.4265 25.288V24.152H22.8505V27H22.4465V26.62C22.3305 26.884 22.1105 27.04 21.7505 27.04ZM21.8505 26.716C22.1905 26.716 22.4265 26.488 22.4265 25.968C22.4265 25.452 22.1905 25.22 21.8505 25.22C21.5065 25.22 21.2745 25.452 21.2745 25.968C21.2745 26.488 21.5065 26.716 21.8505 26.716ZM24.1908 27.04C23.5348 27.04 23.1708 26.624 23.1708 25.968C23.1708 25.332 23.5148 24.896 24.1668 24.896C24.8188 24.896 25.1628 25.34 25.1628 25.932C25.1628 25.972 25.1588 26.008 25.1548 26.048H23.5948C23.6068 26.536 23.8388 26.748 24.1908 26.748C24.4828 26.748 24.6668 26.596 24.7308 26.36H25.1188C25.0268 26.78 24.7268 27.04 24.1908 27.04ZM24.1668 25.188C23.8468 25.188 23.6388 25.38 23.5948 25.768H24.7388C24.6948 25.38 24.4868 25.188 24.1668 25.188Z" fill="white"/>
</g>
<defs>
<filter id="filter0_d_17510_1765" x="0" y="0" width="34" height="34" filterUnits="userSpaceOnUse" color-interpolation-filters="sRGB">
<feFlood flood-opacity="0" result="BackgroundImageFix"/>
<feColorMatrix in="SourceAlpha" type="matrix" values="0 0 0 0 0 0 0 0 0 0 0 0 0 0 0 0 0 0 127 0" result="hardAlpha"/>
<feOffset dy="1"/>
<feGaussianBlur stdDeviation="1"/>
<feComposite in2="hardAlpha" operator="out"/>
<feColorMatrix type="matrix" values="0 0 0 0 0.0627451 0 0 0 0 0.0941176 0 0 0 0 0.156863 0 0 0 0.05 0"/>
<feBlend mode="normal" in2="BackgroundImageFix" result="effect1_dropShadow_17510_1765"/>
<feBlend mode="normal" in="SourceGraphic" in2="effect1_dropShadow_17510_1765" result="shape"/>
</filter>
<linearGradient id="paint0_linear_17510_1765" x1="2" y1="1" x2="32" y2="31" gradientUnits="userSpaceOnUse">
<stop stop-color="#EE9AE5"/>
<stop offset="1" stop-color="#5961F9"/>
</linearGradient>
</defs>
</svg>
