<svg width="105" height="32" viewBox="0 0 105 32" fill="none" xmlns="http://www.w3.org/2000/svg">
<g filter="url(#filter0_d_17498_11181)">
<path d="M2 13.8C2 9.31958 2 7.07937 2.87195 5.36808C3.63893 3.86278 4.86278 2.63893 6.36808 1.87195C8.07937 1 10.3196 1 14.8 1H90.2C94.6804 1 96.9206 1 98.6319 1.87195C100.137 2.63893 101.361 3.86278 102.128 5.36808C103 7.07937 103 9.31958 103 13.8V16.2C103 20.6804 103 22.9206 102.128 24.6319C101.361 26.1372 100.137 27.3611 98.6319 28.1281C96.9206 29 94.6804 29 90.2 29H14.8C10.3196 29 8.07937 29 6.36808 28.1281C4.86278 27.3611 3.63893 26.1372 2.87195 24.6319C2 22.9206 2 20.6804 2 16.2V13.8Z" fill="url(#paint0_linear_17498_11181)"/>
<path d="M14.8 1.25H90.2C92.4443 1.25 94.1125 1.25019 95.434 1.35816C96.7526 1.46589 97.7039 1.67968 98.5184 2.0947C99.9767 2.83772 101.162 4.02332 101.905 5.48157C102.32 6.2961 102.534 7.24742 102.642 8.56597C102.75 9.88745 102.75 11.5557 102.75 13.8V16.2C102.75 18.4443 102.75 20.1126 102.642 21.434C102.534 22.7526 102.32 23.7039 101.905 24.5184C101.162 25.9767 99.9767 27.1623 98.5184 27.9053C97.7039 28.3203 96.7526 28.5341 95.434 28.6418C94.1125 28.7498 92.4443 28.75 90.2 28.75H14.8C12.5557 28.75 10.8875 28.7498 9.56597 28.6418C8.24742 28.5341 7.2961 28.3203 6.48157 27.9053C5.02332 27.1623 3.83772 25.9767 3.0947 24.5184C2.67968 23.7039 2.46589 22.7526 2.35816 21.434C2.25019 20.1126 2.25 18.4443 2.25 16.2V13.8C2.25 11.5557 2.25019 9.88745 2.35816 8.56597C2.46589 7.24742 2.67968 6.2961 3.0947 5.48157C3.83772 4.02332 5.02332 2.83772 6.48157 2.0947C7.2961 1.67968 8.24742 1.46589 9.56597 1.35816C10.8874 1.25019 12.5557 1.25 14.8 1.25Z" stroke="#D0D5DD" stroke-width="0.5"/>
<path d="M13.2 8.6248C13.2 8.23821 13.5134 7.9248 13.9 7.9248H22.1C22.4866 7.9248 22.8 8.23821 22.8 8.6248V8.6248C22.8 9.0114 22.4866 9.3248 22.1 9.3248H13.9C13.5134 9.3248 13.2 9.0114 13.2 8.6248V8.6248Z" fill="white" fill-opacity="0.5"/>
<path d="M11.6 11.0248C11.6 10.6382 11.9134 10.3248 12.3 10.3248H23.7C24.0866 10.3248 24.4 10.6382 24.4 11.0248V11.0248C24.4 11.4114 24.0866 11.7248 23.7 11.7248H12.3C11.9134 11.7248 11.6 11.4114 11.6 11.0248V11.0248Z" fill="white" fill-opacity="0.75"/>
<rect x="10" y="12.7248" width="16" height="9.60093" rx="1.60008" fill="white"/>
<path d="M39.264 20.14C36.114 20.14 34.42 18.054 34.42 15.016C34.42 11.978 36.114 9.892 39.264 9.892C41.98 9.892 43.744 11.516 43.744 13.588H42.288C42.106 12.202 41.126 11.166 39.264 11.166C37.094 11.166 35.974 12.552 35.974 15.016C35.974 17.48 37.094 18.866 39.264 18.866C41.098 18.866 42.106 17.886 42.288 16.36H43.744C43.744 18.474 42.036 20.14 39.264 20.14ZM51.0182 20H49.5342V15.492C49.5342 14.4 49.1422 13.84 48.1202 13.84C47.0422 13.84 46.3422 14.652 46.3422 15.968V20H44.8582V10.032H46.3422V13.924C46.7342 13.14 47.4202 12.636 48.5682 12.636C50.2202 12.636 51.0182 13.476 51.0182 15.226V20ZM54.7288 20.14C53.0488 20.14 52.1388 19.3 52.1388 17.956C52.1388 16.878 52.7968 16.024 54.5888 15.87L55.9888 15.758C56.8428 15.674 57.0948 15.478 57.0948 15.016C57.0948 14.19 56.6188 13.7 55.5688 13.7C54.5888 13.7 54.0568 14.12 53.9868 15.016H52.5308C52.5308 13.56 53.4268 12.636 55.5548 12.636C57.6688 12.636 58.5788 13.56 58.5788 15.016V18.152C58.5788 19.132 58.6628 19.762 58.8028 20H57.4728C57.2488 19.72 57.1648 19.426 57.1648 18.754C56.7728 19.678 55.9748 20.14 54.7288 20.14ZM55.1348 19.118C56.4088 19.118 57.0948 18.124 57.0948 16.934V16.318C56.9408 16.514 56.5488 16.626 55.9888 16.668L55.0648 16.752C54.0288 16.836 53.6228 17.27 53.6228 17.858C53.6228 18.6 54.0708 19.118 55.1348 19.118ZM62.5026 20.07C60.9906 20.07 60.4586 19.622 60.4586 18.152V13.84H59.2826V12.776H60.4586V10.592H61.9426V12.776H63.6086V13.84H61.9426V18.194C61.9426 18.824 62.1806 19.006 62.8386 19.006L63.6086 18.992V20C63.3146 20.028 62.7966 20.07 62.5026 20.07ZM68.3788 20.14C65.6768 20.14 64.3888 18.964 64.3888 16.836H65.8868C66.0408 18.278 66.6708 18.964 68.4068 18.964C70.1148 18.964 70.8148 18.25 70.8148 17.144C70.8148 16.416 70.4088 15.898 68.8268 15.674L67.4408 15.464C65.3828 15.17 64.6408 14.428 64.6408 12.916C64.6408 11.138 65.8588 9.892 68.3788 9.892C70.8988 9.892 72.1168 11.11 72.1168 13.056H70.6608C70.5068 11.74 69.8488 11.068 68.3368 11.068C66.8528 11.068 66.1948 11.768 66.1948 12.832C66.1948 13.588 66.5448 13.994 67.9448 14.19L69.3308 14.4C71.3048 14.68 72.3688 15.436 72.3688 17.046C72.3688 18.936 71.0808 20.14 68.3788 20.14ZM74.9711 20H73.4871V10.032H74.9711V20ZM77.8559 20H76.3719V12.776H77.8559V20ZM77.1139 11.516C76.5399 11.516 76.2319 11.18 76.2319 10.732C76.2319 10.284 76.5399 9.934 77.1139 9.934C77.6739 9.934 77.9959 10.284 77.9959 10.732C77.9959 11.18 77.6739 11.516 77.1139 11.516ZM82.1266 20.14C80.1806 20.14 78.9766 18.754 78.9766 16.388C78.9766 14.022 80.1806 12.636 82.1266 12.636C83.2886 12.636 84.0866 13.112 84.4926 14.008V10.032H85.9766V20H84.5626V18.67C84.1566 19.594 83.3866 20.14 82.1266 20.14ZM82.4766 19.006C83.6666 19.006 84.4926 18.208 84.4926 16.388C84.4926 14.582 83.6666 13.77 82.4766 13.77C81.2726 13.77 80.4606 14.582 80.4606 16.388C80.4606 18.208 81.2726 19.006 82.4766 19.006ZM90.6677 20.14C88.3717 20.14 87.0977 18.684 87.0977 16.388C87.0977 14.162 88.3017 12.636 90.5837 12.636C92.8657 12.636 94.0697 14.19 94.0697 16.262C94.0697 16.402 94.0557 16.528 94.0417 16.668H88.5817C88.6237 18.376 89.4357 19.118 90.6677 19.118C91.6897 19.118 92.3337 18.586 92.5577 17.76H93.9157C93.5937 19.23 92.5437 20.14 90.6677 20.14ZM90.5837 13.658C89.4637 13.658 88.7357 14.33 88.5817 15.688H92.5857C92.4317 14.33 91.7037 13.658 90.5837 13.658Z" fill="white"/>
</g>
<defs>
<filter id="filter0_d_17498_11181" x="0" y="0" width="105" height="32" filterUnits="userSpaceOnUse" color-interpolation-filters="sRGB">
<feFlood flood-opacity="0" result="BackgroundImageFix"/>
<feColorMatrix in="SourceAlpha" type="matrix" values="0 0 0 0 0 0 0 0 0 0 0 0 0 0 0 0 0 0 127 0" result="hardAlpha"/>
<feOffset dy="1"/>
<feGaussianBlur stdDeviation="1"/>
<feComposite in2="hardAlpha" operator="out"/>
<feColorMatrix type="matrix" values="0 0 0 0 0.0627451 0 0 0 0 0.0941176 0 0 0 0 0.156863 0 0 0 0.05 0"/>
<feBlend mode="normal" in2="BackgroundImageFix" result="effect1_dropShadow_17498_11181"/>
<feBlend mode="normal" in="SourceGraphic" in2="effect1_dropShadow_17498_11181" result="shape"/>
</filter>
<linearGradient id="paint0_linear_17498_11181" x1="2" y1="1" x2="16.4168" y2="53.0033" gradientUnits="userSpaceOnUse">
<stop stop-color="#EE9AE5"/>
<stop offset="1" stop-color="#5961F9"/>
</linearGradient>
</defs>
</svg>
