<svg width="128" height="128" viewBox="0 0 32 32" fill="none" xmlns="http://www.w3.org/2000/svg">
<path d="M0 16C0 10.3995 0 7.59921 1.08993 5.46009C2.04867 3.57847 3.57847 2.04867 5.46009 1.08993C7.59921 0 10.3995 0 16 0V0C21.6005 0 24.4008 0 26.5399 1.08993C28.4215 2.04867 29.9513 3.57847 30.9101 5.46009C32 7.59921 32 10.3995 32 16V28.8C32 29.9201 32 30.4802 31.782 30.908C31.5903 31.2843 31.2843 31.5903 30.908 31.782C30.4802 32 29.9201 32 28.8 32H16C10.3995 32 7.59921 32 5.46009 30.9101C3.57847 29.9513 2.04867 28.4215 1.08993 26.5399C0 24.4008 0 21.6005 0 16V16Z" fill="url(#paint0_linear_17360_169790)"/>
<path d="M11.2 9.7C11.2 9.3134 11.5134 9 11.9 9H20.1C20.4866 9 20.8 9.3134 20.8 9.7V9.7C20.8 10.0866 20.4866 10.4 20.1 10.4H11.9C11.5134 10.4 11.2 10.0866 11.2 9.7V9.7Z" fill="white" fill-opacity="0.5"/>
<path d="M9.59998 12.1C9.59998 11.7134 9.91338 11.4 10.3 11.4H21.7C22.0866 11.4 22.4 11.7134 22.4 12.1V12.1C22.4 12.4866 22.0866 12.8 21.7 12.8H10.3C9.91338 12.8 9.59998 12.4866 9.59998 12.1V12.1Z" fill="white" fill-opacity="0.75"/>
<rect x="8" y="13.8" width="16" height="9.60093" rx="1.60008" fill="white"/>
<defs>
<linearGradient id="paint0_linear_17360_169790" x1="0" y1="0" x2="32" y2="32" gradientUnits="userSpaceOnUse">
<stop stop-color="#EE9AE5"/>
<stop offset="1" stop-color="#5961F9"/>
</linearGradient>
</defs>
</svg>
